SplineFontDB: 3.2
FontName: QuestListsIcons
FullName: QuestLists Icons
FamilyName: QuestLists Icons
Weight: Regular
Copyright: Copyright (c) 2021, Samuel Tyler\nParts of this icon set is taken from the Material Design Icons font https://github.com/Templarian/MaterialDesign-Webfont
UComments: "2021-12-2: Created with FontForge (http://fontforge.org)"
Version: 1.0
DefaultBaseFilename: QuestLists-Icons
ItalicAngle: 0
UnderlinePosition: -102
UnderlineWidth: 51
Ascent: 819
Descent: 205
InvalidEm: 0
LayerCount: 4
Layer: 0 0 "Back" 1
Layer: 1 0 "Fore" 0
Layer: 2 0 "Mtn L" 1
Layer: 3 0 "Mtn R" 1
XUID: [1021 774 979781558 8931670]
StyleMap: 0x0040
FSType: 0
OS2Version: 1
OS2_WeightWidthSlopeOnly: 0
OS2_UseTypoMetrics: 1
CreationTime: 1638458673
ModificationTime: 1641620591
PfmFamily: 17
TTFWeight: 400
TTFWidth: 5
LineGap: 92
VLineGap: 0
OS2TypoAscent: 0
OS2TypoAOffset: 1
OS2TypoDescent: 0
OS2TypoDOffset: 1
OS2TypoLinegap: 92
OS2WinAscent: 0
OS2WinAOffset: 1
OS2WinDescent: 0
OS2WinDOffset: 1
HheadAscent: 0
HheadAOffset: 1
HheadDescent: 0
HheadDOffset: 1
OS2Vendor: 'PfEd'
MarkAttachClasses: 1
DEI: 91125
LangName: 1033
Encoding: Custom
UnicodeInterp: none
NameList: AGL For New Fonts
DisplaySize: -72
AntiAlias: 1
FitToEm: 0
WinInfo: 0 13 5
BeginPrivate: 1
BlueValues 23 [8 114 606 606 621 621]
EndPrivate
TeXData: 1 0 0 346030 173015 115343 635904 1048576 115343 783286 444596 497025 792723 393216 433062 380633 303038 157286 324010 404750 52429 2506097 1059062 262144
BeginChars: 55 55

StartChar: plus
Encoding: 1 43 0
Width: 1024
VWidth: 1000
Flags: W
HStem: 111 58<476.137 625.239> 115 72<210.774 380.28> 340 43<202 266 309 373> 391 58<684.533 832.239> 543 63<209.458 379.167>
VStem: 42 75<279.99 450.121> 266 43<276 340 383 447> 349 60<244.94 311> 474 64<280.575 450.121> 556 60<249 322.444> 695 51<239.737 314> 902 51<246 320.263>
LayerCount: 4
Fore
SplineSet
117 365 m 0x7ff0
 117 267 197 187 295 187 c 0
 326 187 355 195 381 209 c 1
 361 241 349 274 349 311 c 1
 409 311 l 1
 409 287 415 264 426 244 c 1
 456 276 474 318 474 365 c 0
 474 463 393 543 295 543 c 0
 197 543 117 463 117 365 c 0x7ff0
42 369 m 0
 42 500 158 606 294 606 c 0
 430 606 538 500 538 369 c 0
 538 304 512 242 470 195 c 1
 494 179 522 169 552 169 c 0
 630 169 695 236 695 314 c 1
 746 314 l 1
 746 209 662 111 553 111 c 0xbff0
 507 111 463 129 428 157 c 1
 390 131 346 115 297 115 c 0
 161 115 42 238 42 369 c 0
616 249 m 1
 556 249 l 1
 556 354 651 449 760 449 c 0
 869 449 953 351 953 246 c 1
 902 246 l 1
 902 324 837 391 759 391 c 0
 681 391 616 327 616 249 c 1
309 383 m 1
 373 383 l 1
 373 340 l 1
 309 340 l 1
 309 276 l 1
 266 276 l 1
 266 340 l 1
 202 340 l 1
 202 383 l 1
 266 383 l 1
 266 447 l 1
 309 447 l 1
 309 383 l 1
EndSplineSet
Validated: 1
EndChar

StartChar: zero
Encoding: 3 48 1
Width: 1000
VWidth: 1000
Flags: W
HStem: 111 58<476.137 626.702> 115 72<210.774 380.28> 391 58<684.533 833.702> 543 63<209.458 379.167>
VStem: 42 75<279.99 450.121> 349 60<244.94 311> 474 64<280.575 450.121> 556 60<249 322.016> 695 51<237.984 311> 902 51<249 322.016>
LayerCount: 4
Fore
SplineSet
117 365 m 0x7fc0
 117 267 197 187 295 187 c 0
 326 187 355 195 381 209 c 1
 361 241 349 277 349 314 c 1
 409 311 l 1
 409 287 415 264 426 244 c 1
 456 276 474 318 474 365 c 0
 474 463 393 543 295 543 c 0
 197 543 117 463 117 365 c 0x7fc0
42 369 m 0
 42 500 158 606 294 606 c 0
 430 606 538 500 538 369 c 0
 538 304 512 242 470 195 c 1
 494 179 522 169 552 169 c 0
 630 169 695 233 695 311 c 1
 746 314 l 1
 746 209 662 111 553 111 c 0xbfc0
 507 111 463 129 428 157 c 1
 390 131 346 115 297 115 c 0
 161 115 42 238 42 369 c 0
616 249 m 1
 556 246 l 1
 556 351 651 449 760 449 c 0
 869 449 953 351 953 246 c 1
 902 249 l 1
 902 327 837 391 759 391 c 0
 681 391 616 327 616 249 c 1
EndSplineSet
Validated: 1
EndChar

StartChar: ballotx
Encoding: 0 10007 2
Width: 1000
VWidth: 1000
Flags: W
HStem: 111 58<476.137 626.702> 115 72<210.774 380.28> 391 58<684.533 833.702> 543 63<209.458 379.167>
VStem: 42 75<279.99 450.121> 352 57<245.013 288.168> 474 64<280.575 450.121> 556 60<249 322.016> 695 51<237.984 311> 902 51<249 322.016>
LayerCount: 4
Fore
SplineSet
117 365 m 0x7fc0
 117 267 197 187 295 187 c 0
 326 187 355 195 381 209 c 1
 367 231 357 256 352 281 c 1
 380 309 l 1
 376 313 l 1
 409 311 l 1
 409 287 415 264 426 244 c 1
 456 276 474 318 474 365 c 0
 474 463 393 543 295 543 c 0
 197 543 117 463 117 365 c 0x7fc0
616 249 m 1
 616 327 681 391 759 391 c 0
 837 391 902 327 902 249 c 1
 953 246 l 1
 953 351 869 449 760 449 c 0
 651 449 556 351 556 246 c 1
 616 249 l 1
42 369 m 0
 42 500 158 606 294 606 c 0
 430 606 538 500 538 369 c 0
 538 304 512 242 470 195 c 1
 494 179 522 169 552 169 c 0
 630 169 695 233 695 311 c 1
 746 314 l 1
 746 209 662 111 553 111 c 0xbfc0
 507 111 463 129 428 157 c 1
 390 131 346 115 297 115 c 0
 161 115 42 238 42 369 c 0
376 313 m 1
 334 355 l 1
 380 400 l 1
 350 430 l 1
 304 385 l 1
 259 430 l 1
 229 400 l 1
 274 355 l 1
 229 309 l 1
 259 279 l 1
 304 325 l 1
 350 279 l 1
 352 281 l 1
 380 309 l 1
 376 313 l 1
EndSplineSet
Validated: 5
EndChar

StartChar: hyphen
Encoding: 2 45 3
Width: 1000
VWidth: 1000
Flags: W
HStem: 111 58<476.129 626.702> 115 72<211.258 379.903> 346 43<205 376> 391 58<684.533 833.702> 543 63<209.458 379.167>
VStem: 42 75<279.99 450.121> 349 60<245.151 311> 474 64<280.876 449.709> 556 60<249 322.016> 695 51<237.984 311> 902 51<249 322.016>
LayerCount: 4
Fore
SplineSet
205 389 m 1x3fe0
 376 389 l 1
 376 346 l 1
 205 346 l 1
 205 389 l 1x3fe0
616 249 m 1
 556 246 l 1
 556 351 651 449 760 449 c 0
 869 449 953 351 953 246 c 1
 902 249 l 1
 902 327 837 391 759 391 c 0
 681 391 616 327 616 249 c 1
42 369 m 0
 42 500 158 606 294 606 c 0
 430 606 538 500 538 369 c 0
 538 304.413368413 512.476984857 241.771347503 470.299364066 194.855925003 c 1
 493.576955533 178.584551224 521.815046783 169 552 169 c 0
 630 169 695 233 695 311 c 1
 746 314 l 1
 746 209 662 111 553 111 c 0xbfe0
 506.688362145 111 462.904015698 128.691039852 427.859597196 157.093490852 c 1
 390.490866706 130.795195484 345.735884816 115 297 115 c 0x7fe0
 161 115 42 238 42 369 c 0
117 365 m 0
 117 267 197 187 295 187 c 0x7fe0
 326.09520582 187 355.478885086 195.054242607 381.106561622 209.182141526 c 1
 360.899057868 240.555390057 349 276.839308686 349 314 c 1
 409 311 l 1
 409 286.912037975 415.199037548 264.159253267 426.065603096 244.214251214 c 1
 455.738111616 275.993192648 474 318.467497615 474 365 c 0
 474 463 393 543 295 543 c 0
 197 543 117 463 117 365 c 0
EndSplineSet
Validated: 1
EndChar

StartChar: x
Encoding: 6 120 4
Width: 1024
Flags: W
HStem: 114 59<487.124 640.196> 118 73<215.899 389.889> 400 60<702.176 852.196> 556 65<217.539 388.043>
VStem: 43 77<286.932 458.191> 361 58<251.036 295.168> 485 66<287.725 458.191> 569 62<255 330.062> 712 52<243.938 318> 924 52<255 330.062>
LayerCount: 4
Fore
SplineSet
120 374 m 0x7fc0
 120 274 202 191 302 191 c 0
 334 191 364 200 391 214 c 1
 376 237 366 262 361 288 c 1
 389 316 l 1
 385 320 l 1
 419 318 l 1
 419 294 425 270 436 250 c 1
 466 283 485 327 485 374 c 0
 485 474 402 556 302 556 c 0
 202 556 120 474 120 374 c 0x7fc0
43 378 m 0
 43 512 162 621 301 621 c 0
 440 621 551 512 551 378 c 0
 551 312 525 248 481 199 c 1
 505 183 534 173 565 173 c 0
 645 173 712 238 712 318 c 1
 764 322 l 1
 764 214 678 114 566 114 c 0xbfc0
 518 114 474 132 438 161 c 1
 400 134 354 118 304 118 c 0
 165 118 43 244 43 378 c 0
631 255 m 1
 631 335 697 400 777 400 c 0
 857 400 924 335 924 255 c 1
 976 252 l 1
 976 360 890 460 778 460 c 0
 666 460 569 360 569 252 c 1
 631 255 l 1
385 320 m 1
 342 364 l 1
 389 410 l 1
 358 440 l 1
 311 394 l 1
 265 440 l 1
 234 410 l 1
 281 364 l 1
 234 316 l 1
 265 286 l 1
 311 333 l 1
 358 286 l 1
 361 288 l 1
 385 320 l 1
EndSplineSet
Validated: 5
EndChar

StartChar: Q
Encoding: 4 81 5
Width: 1000
VWidth: 1000
Flags: W
HStem: 111 58<476.137 626.702> 115 72<210.774 380.28> 391 58<684.533 833.702> 543 63<209.458 379.167>
VStem: 42 75<279.99 450.121> 349 60<244.94 311> 474 64<280.575 450.121> 556 60<249 322.016> 695 51<237.984 311> 902 51<249 322.016>
LayerCount: 4
Fore
SplineSet
117 365 m 0x7fc0
 117 267 197 187 295 187 c 0
 326 187 355 195 381 209 c 1
 361 241 349 277 349 314 c 1
 409 311 l 1
 409 287 415 264 426 244 c 1
 456 276 474 318 474 365 c 0
 474 463 393 543 295 543 c 0
 197 543 117 463 117 365 c 0x7fc0
42 369 m 0
 42 500 158 606 294 606 c 0
 430 606 538 500 538 369 c 0
 538 304 512 242 470 195 c 1
 494 179 522 169 552 169 c 0
 630 169 695 233 695 311 c 1
 746 314 l 1
 746 209 662 111 553 111 c 0xbfc0
 507 111 463 129 428 157 c 1
 390 131 346 115 297 115 c 0
 161 115 42 238 42 369 c 0
616 249 m 1
 556 246 l 1
 556 351 651 449 760 449 c 0
 869 449 953 351 953 246 c 1
 902 249 l 1
 902 327 837 391 759 391 c 0
 681 391 616 327 616 249 c 1
EndSplineSet
Validated: 1
EndChar

StartChar: p
Encoding: 5 112 6
Width: 1000
VWidth: 1000
Flags: W
HStem: 111 58<476.137 626.702> 115 72<210.774 380.28> 254 75<266.328 313.999 314 318.567> 391 58<684.533 833.702> 393 70<259.76 313.999> 543 63<209.458 379.167>
VStem: 42 75<279.99 450.121> 214 42<348 369> 263 53<431 462> 320 47<348 369> 474 64<280.575 450.121> 556 60<249 322.016> 695 51<237.984 311> 902 51<249 322.016>
LayerCount: 4
Fore
SplineSet
117 365 m 0x6ffc
 117 267 197 187 295 187 c 0
 326 187 355 195 381 209 c 1
 365 234 354 263 350 292 c 1
 337 297 l 1
 320 286 l 1
 316 258 l 2
 316 257 316 256 314 256 c 0
 314 254 313 254 312 254 c 2
 269 254 l 2
 268 254 266 255 263 258 c 2
 258 286 l 1
 252 288 246 292 241 297 c 1
 216 286 l 2
 213 286 211 287 209 288 c 2
 188 324 l 2
 187 326 187 328 190 331 c 2
 214 348 l 1
 214 369 l 1
 190 386 l 2
 189 387 188 390 188 393 c 2
 209 429 l 2
 211 430 213 431 216 431 c 2
 241 420 l 1
 258 431 l 1
 263 459 l 2
 263 462 265 463 269 463 c 2
 312 463 l 2
 313 463 314 462 314 462 c 0
 316 460 316 460 316 459 c 2
 320 431 l 1
 325 430 331 426 340 420 c 1
 365 431 l 2
 370 431 372 430 372 429 c 2
 393 393 l 2
 394 392 394 389 391 386 c 2
 367 369 l 1
 367 348 l 1
 391 331 l 2
 392 331 392 330 392 330 c 0
 392 328 392 328 391 327 c 2
 382 312 l 1
 409 311 l 1
 409 287 415 264 426 244 c 1
 456 276 474 318 474 365 c 4
 474 463 393 543 295 543 c 4
 197 543 117 463 117 365 c 0x6ffc
42 369 m 0
 42 500 158 606 294 606 c 0
 430 606 538 500 538 369 c 0
 538 304 512 242 470 195 c 1
 494 179 522 169 552 169 c 0
 630 169 695 233 695 311 c 1
 746 314 l 1
 746 209 662 111 553 111 c 0xa7fc
 507 111 463 129 428 157 c 1
 390 131 346 115 297 115 c 0
 161 115 42 238 42 369 c 0
616 249 m 1
 556 246 l 1
 556 351 651 449 760 449 c 0
 869 449 953 351 953 246 c 1
 902 249 l 1
 902 327 837 391 759 391 c 0x37fc
 681 391 616 327 616 249 c 1
320 361 m 0
 320 369 317 376 310 383 c 0
 304 390 297 393 288 393 c 0x2ffc
 280 393 273 390 266 383 c 0
 259 376 256 369 256 360 c 0
 256 352 259 345 266 338 c 0
 273 332 280 329 288 329 c 0
 297 329 304 332 310 338 c 0
 317 345 320 352 320 361 c 0
EndSplineSet
Validated: 1
EndChar

StartChar: checkmark
Encoding: 7 10003 7
Width: 1024
Flags: W
HStem: 114 59<487.124 640.196> 118 73<215.899 388.387> 400 60<702.176 852.196> 556 65<217.539 388.043>
VStem: 43 77<286.932 458.191> 357 62<250.94 318> 485 66<287.725 458.191> 569 62<255 330.062> 712 52<243.938 318> 924 52<255 330.062>
LayerCount: 4
Fore
SplineSet
120 374 m 0x7fc0
 120 274 202 191 302 191 c 0
 334 191 364 199 390 214 c 1
 369 246 357 284 357 322 c 1
 419 318 l 1
 419 294 425 270 436 250 c 1
 466 283 485 327 485 374 c 0
 485 474 402 556 302 556 c 0
 202 556 120 474 120 374 c 0x7fc0
43 378 m 0
 43 512 162 621 301 621 c 0
 440 621 551 512 551 378 c 0
 551 312 525 248 481 199 c 1
 505 183 534 173 565 173 c 0
 645 173 712 238 712 318 c 1
 764 322 l 1
 764 214 678 114 566 114 c 0xbfc0
 518 114 474 132 438 161 c 1
 400 134 354 118 304 118 c 0
 165 118 43 244 43 378 c 0
631 255 m 1
 569 252 l 1
 569 360 666 460 778 460 c 0
 890 460 976 360 976 252 c 1
 924 255 l 1
 924 335 857 400 777 400 c 0
 697 400 631 335 631 255 c 1
358 451 m 1
 384 420 l 1
 281 316 l 1
 220 382 l 1
 246 407 l 1
 281 372 l 1
 358 451 l 1
EndSplineSet
Validated: 1
EndChar

StartChar: HeavyBallotX
Encoding: 8 10008 8
Width: 1024
Flags: W
HStem: 114 59<487.124 640.196> 118 73<215.899 389.889> 400 60<702.176 852.196> 556 65<217.539 388.043>
VStem: 43 77<286.932 458.191> 361 58<251.184 295.168> 485 66<287.703 458.191> 569 62<255 330.062> 712 52<243.938 318> 924 52<255 330.062>
LayerCount: 4
Fore
SplineSet
120 374 m 4x7fc0
 120 274 202 191 302 191 c 4
 334 191 364 200 391 214 c 5
 376 237 365.994492776 261.917648836 361 288 c 5
 389 316 l 5
 385 320 l 5
 419 318 l 5
 419 293.531160566 425.174342315 270.46558075 436.035127793 250.233932811 c 5
 466.331636203 282.972168307 485 326.574263764 485 374 c 4
 485 474 402 556 302 556 c 4
 202 556 120 474 120 374 c 4x7fc0
43 378 m 4
 43 512 162 621 301 621 c 4
 440 621 551 512 551 378 c 4
 551 312 525 248 481 199 c 5
 505 183 534 173 565 173 c 4
 645 173 712 238 712 318 c 5
 764 322 l 5
 764 214 678 114 566 114 c 4xbfc0
 518 114 474 132 438 161 c 5
 400 134 354 118 304 118 c 4
 165 118 43 244 43 378 c 4
631 255 m 5
 631 335 697 400 777 400 c 4
 857 400 924 335 924 255 c 5
 976 252 l 5
 976 360 890 460 778 460 c 4
 666 460 569 360 569 252 c 5
 631 255 l 5
389 410 m 5
 358 440 l 5
 311 394 l 5
 265 440 l 5
 234 410 l 5
 281 364 l 5
 234 316 l 5
 265 286 l 5
 311 333 l 5
 358 286 l 5
 359 287 l 5
 359 287 358.690344458 286.605823186 358.666734694 286.444489796 c 5
 361 288 l 6
 360.899125031 288.55481233 360.800794002 289.020586765 360.705006912 289.406305001 c 6
 385 320 l 5
 342 364 l 5
 389 410 l 5
358.666734694 286.444489796 m 5
 358.222244898 283.407142857 358 280.814285714 358 286 c 5
 358.666734694 286.444489796 l 5
EndSplineSet
Validated: 5
EndChar

StartChar: CrossMarkEmoji
Encoding: 9 10060 9
Width: 1024
Flags: W
HStem: 114 59<487.804 640.196> 118 73<215.899 388.064> 400 60<702.176 852.196> 556 65<217.539 388.043>
VStem: 43 77<286.932 458.191> 361 58<251.184 295.168> 485 66<287.605 458.191> 569 62<255 330.062> 712 52<243.938 318> 924 52<255 330.062>
LayerCount: 4
Fore
SplineSet
389 410 m 1x3fc0
 358 440 l 1
 311 394 l 1
 265 440 l 1
 234 410 l 1
 281 364 l 1
 234 316 l 1
 265 286 l 1
 311 333 l 1
 358 286 l 1
 361 288 l 1
 359 299 357 311 357 322 c 1
 385 320 l 1
 342 364 l 1
 389 410 l 1x3fc0
631 255 m 1
 631 335 697 400 777 400 c 0
 857 400 924 335 924 255 c 1
 976 252 l 1
 976 360 890 460 778 460 c 0
 666 460 569 360 569 252 c 1
 631 255 l 1
43 378 m 0
 43 512 162 621 301 621 c 0
 440 621 551 512 551 378 c 0
 551 311.792470537 524.634930306 247.5379092 481.192283449 199.469096748 c 1
 504.988738411 182.798513715 533.939144652 173 565 173 c 0
 645 173 712 238 712 318 c 1
 764 322 l 1
 764 214 678 114 566 114 c 0xbfc0
 518.416945631 114 473.777282445 132.113176504 438.114172277 161.229017348 c 1
 399.774578981 134.227649332 353.88354794 118 304 118 c 0x7fc0
 165 118 43 244 43 378 c 0
120 374 m 0
 120 274 202 191 302 191 c 0x7fc0
 334.04424905 191 364.342880474 199.522721346 390.724222279 214.396492045 c 1
 376.301337738 236.913166231 365.994492776 261.917648836 361 288 c 1
 389 316 l 1
 385 320 l 1
 419 318 l 1
 419 293.531160566 425.174342315 270.46558075 436.035127793 250.233932811 c 1
 466.331636203 282.972168307 485 326.574263764 485 374 c 0
 485 474 402 556 302 556 c 0
 202 556 120 474 120 374 c 0
EndSplineSet
Validated: 5
EndChar

StartChar: n
Encoding: 10 110 10
Width: 1024
Flags: W
HStem: 8 21G<627.815 668.8> 118 73<215.899 388.387> 400 60<702.176 852.196> 556 65<215.853 388.043>
VStem: 43 77<286.932 459.294> 485 66<290.125 458.191> 569 62<255 330.062> 712 52<244.274 318> 924 52<255 330.062>
LayerCount: 4
Fore
SplineSet
482 279 m 1025
120 374 m 0
 120 274 202 191 302 191 c 0
 334 191 364 199 390 214 c 1
 374 239 363 266 359 295 c 1
 198 455 l 1
 162 490 l 1
 136 458 120 418 120 374 c 0
631 255 m 1
 569 252 l 1
 569 360 666 460 778 460 c 0
 890 460 976 360 976 252 c 1
 924 255 l 1
 924 335 857 400 777 400 c 0
 697 400 631 335 631 255 c 1
110.832576815 540.82842946 m 1
 29 622 l 1
 78 667 l 1
 164 583 l 1
 204 607 251 621 301 621 c 0
 440 621 551 512 551 378 c 0
 551 330.017554197 537.010238076 282.035108394 512.027424019 242.043888702 c 1
 521.221556886 233.041916168 l 1
 582 174 l 1
 654 182 712 244 712 318 c 1
 764 322 l 1
 764 236 710 155 631 126 c 1
 700 58 l 1
 648 8 l 1
 539 116 l 1
 502 121 467 138 438 161 c 1
 400 134 354 118 304 118 c 0
 165 118 43 244 43 378 c 0
 43 440.916245979 68.9309156486 497.8484345 110.832576815 540.82842946 c 1
464.022661525 289.045336224 m 1
 477.009296412 315.033709629 485 344.01743584 485 374 c 0
 485 474 402 556 302 556 c 0
 270.222234148 556 240.416785489 548.11073123 214.542273832 533.311503596 c 1
 464.022661525 289.045336224 l 1
EndSplineSet
Validated: 1
EndChar

StartChar: CurlyLoopEmoji
Encoding: 11 10160 11
Width: 1024
Flags: W
HStem: 114 59<487.752 640.196> 118 73<215.899 388.248> 400 60<702.176 852.196> 556 65<217.539 388.043>
VStem: 43 77<286.932 458.191> 357 62<251.184 318> 485 66<287.605 458.191> 569 62<255 330.062> 712 52<243.938 318> 924 52<255 330.062>
LayerCount: 4
Fore
SplineSet
120 374 m 0x7fc0
 120 274 202 191 302 191 c 0
 333.777773434 191 363.838841164 199.381563141 390.065259895 214.026746126 c 1
 369.248182456 246.255683994 357 283.622762308 357 322 c 1
 419 318 l 1
 419 293.531160566 425.174342315 270.46558075 436.035127793 250.233932811 c 1
 466.331636203 282.972168307 485 326.574263764 485 374 c 0
 485 474 402 556 302 556 c 0
 202 556 120 474 120 374 c 0x7fc0
43 378 m 0
 43 512 162 621 301 621 c 0
 440 621 551 512 551 378 c 0
 551 311.792470537 524.634930306 247.5379092 481.192283449 199.469096748 c 1
 504.988738411 182.798513715 533.939144652 173 565 173 c 0
 645 173 712 238 712 318 c 1
 764 322 l 1
 764 214 678 114 566 114 c 0xbfc0
 518.470566312 114 473.642480361 132.008984906 437.782569111 160.995880562 c 1
 399.510084959 134.134267349 353.739813463 118 304 118 c 0
 165 118 43 244 43 378 c 0
631 255 m 1
 569 252 l 1
 569 360 666 460 778 460 c 0
 890 460 976 360 976 252 c 1
 924 255 l 1
 924 335 857 400 777 400 c 0
 697 400 631 335 631 255 c 1
EndSplineSet
Validated: 1
EndChar

StartChar: GearEmoji
Encoding: 12 9881 12
Width: 1024
Flags: W
HStem: 114 59<487.752 640.196> 118 73<215.899 388.248> 260 77<269.14 326.014> 400 60<702.176 852.196> 402 72<265.957 326.014> 556 65<217.539 388.043>
VStem: 43 77<286.932 458.191> 219 43<356 378> 269 55<260 293 441 474> 328 48<356 378> 485 66<287.605 458.191> 569 62<255 330.062> 712 52<243.938 318> 924 52<255 330.062>
LayerCount: 4
Fore
SplineSet
120 374 m 0x6ffc
 120 274 202 191 302 191 c 0
 333.777773434 191 363.838841164 199.381563141 390.065259895 214.026746126 c 1
 373.336552391 239.926081724 362.141474417 269.143530771 358.389402641 299.536865786 c 1
 345 304 l 1
 328 293 l 1
 324 264 l 2
 324 263 323 263 322 262 c 0
 321 261 320 260 319 260 c 2
 275 260 l 2
 274 260 272 261 269 264 c 2
 264 293 l 1
 258 295 252 299 247 304 c 1
 221 293 l 2
 218 293 216 294 214 295 c 2
 193 332 l 2
 192 334 192 336 195 339 c 2
 219 356 l 1
 219 378 l 1
 195 395 l 2
 194 396 193 399 193 402 c 2
 214 439 l 2
 216 440 218 441 221 441 c 2
 247 430 l 1
 264 441 l 1
 269 470 l 2
 269 473 271 474 275 474 c 2
 319 474 l 2
 320 474 321 474 322 473 c 0
 323 472 324 471 324 470 c 2
 328 441 l 1
 333 440 339 436 348 430 c 1
 374 441 l 2
 379 441 381 440 381 439 c 2
 402 402 l 2
 403 401 403 398 400 395 c 2
 376 378 l 1
 376 356 l 1
 400 339 l 2
 401 339 401 338 401 337 c 0
 401 336 401 336 400 335 c 2
 391.196399345 319.793780687 l 1
 419 318 l 1
 419 293.531160566 425.174342315 270.46558075 436.035127793 250.233932811 c 1
 466.331636203 282.972168307 485 326.574263764 485 374 c 0
 485 474 402 556 302 556 c 0
 202 556 120 474 120 374 c 0x6ffc
43 378 m 0
 43 512 162 621 301 621 c 0
 440 621 551 512 551 378 c 0
 551 311.792470537 524.634930306 247.5379092 481.192283449 199.469096748 c 1
 504.988738411 182.798513715 533.939144652 173 565 173 c 0
 645 173 712 238 712 318 c 1
 764 322 l 1
 764 214 678 114 566 114 c 0xa7fc
 518.470566312 114 473.642480361 132.008984906 437.782569111 160.995880562 c 1
 399.510084959 134.134267349 353.739813463 118 304 118 c 0
 165 118 43 244 43 378 c 0
631 255 m 1
 569 252 l 1
 569 360 666 460 778 460 c 0
 890 460 976 360 976 252 c 1
 924 255 l 1
 924 335 857 400 777 400 c 0x37fc
 697 400 631 335 631 255 c 1
328 370 m 0
 328 378 324 385 318 392 c 0
 312 399 304 402 295 402 c 0x2ffc
 286 402 279 399 272 392 c 0
 265 385 262 378 262 369 c 0
 262 360 265 353 272 347 c 0
 279 341 286 337 295 337 c 0
 304 337 312 341 318 347 c 0
 324 353 328 361 328 370 c 0
EndSplineSet
Validated: 1
EndChar

StartChar: WhiteHeavyCheckMarkEmoji
Encoding: 13 9989 13
Width: 1024
Flags: W
HStem: 114 59<487.752 640.196> 118 73<215.899 388.248> 400 60<702.176 852.196> 556 65<217.539 388.043>
VStem: 43 77<286.932 458.191> 357 62<251.184 318> 485 66<287.605 458.191> 569 62<255 330.062> 712 52<243.938 318> 924 52<255 330.062>
LayerCount: 4
Fore
SplineSet
120 374 m 0x7fc0
 120 274 202 191 302 191 c 0
 333.777773434 191 363.838841164 199.381563141 390.065259895 214.026746126 c 1
 369.248182456 246.255683994 357 283.622762308 357 322 c 1
 419 318 l 1
 419 293.531160566 425.174342315 270.46558075 436.035127793 250.233932811 c 1
 466.331636203 282.972168307 485 326.574263764 485 374 c 0
 485 474 402 556 302 556 c 0
 202 556 120 474 120 374 c 0x7fc0
43 378 m 0
 43 512 162 621 301 621 c 0
 440 621 551 512 551 378 c 0
 551 311.792470537 524.634930306 247.5379092 481.192283449 199.469096748 c 1
 504.988738411 182.798513715 533.939144652 173 565 173 c 0
 645 173 712 238 712 318 c 1
 764 322 l 1
 764 214 678 114 566 114 c 0xbfc0
 518.470566312 114 473.642480361 132.008984906 437.782569111 160.995880562 c 1
 399.510084959 134.134267349 353.739813463 118 304 118 c 0
 165 118 43 244 43 378 c 0
631 255 m 1
 569 252 l 1
 569 360 666 460 778 460 c 0
 890 460 976 360 976 252 c 1
 924 255 l 1
 924 335 857 400 777 400 c 0
 697 400 631 335 631 255 c 1
358 451 m 1
 384 420 l 1
 281 316 l 1
 220 382 l 1
 246 407 l 1
 281 372 l 1
 358 451 l 1
EndSplineSet
Validated: 1
EndChar

StartChar: HeavyCheckMarkEmoji
Encoding: 14 10004 14
Width: 1024
Flags: W
HStem: 114 59<487.752 640.196> 118 73<215.899 388.248> 400 60<702.176 852.196> 556 65<217.539 388.043>
VStem: 43 77<286.932 458.191> 357 62<251.184 318> 485 66<287.605 458.191> 569 62<255 330.062> 712 52<243.938 318> 924 52<255 330.062>
LayerCount: 4
Fore
SplineSet
120 374 m 0x7fc0
 120 274 202 191 302 191 c 0
 333.777773434 191 363.838841164 199.381563141 390.065259895 214.026746126 c 1
 369.248182456 246.255683994 357 283.622762308 357 322 c 1
 419 318 l 1
 419 293.531160566 425.174342315 270.46558075 436.035127793 250.233932811 c 1
 466.331636203 282.972168307 485 326.574263764 485 374 c 0
 485 474 402 556 302 556 c 0
 202 556 120 474 120 374 c 0x7fc0
43 378 m 0
 43 512 162 621 301 621 c 0
 440 621 551 512 551 378 c 0
 551 311.792470537 524.634930306 247.5379092 481.192283449 199.469096748 c 1
 504.988738411 182.798513715 533.939144652 173 565 173 c 0
 645 173 712 238 712 318 c 1
 764 322 l 1
 764 214 678 114 566 114 c 0xbfc0
 518.470566312 114 473.642480361 132.008984906 437.782569111 160.995880562 c 1
 399.510084959 134.134267349 353.739813463 118 304 118 c 0
 165 118 43 244 43 378 c 0
631 255 m 1
 569 252 l 1
 569 360 666 460 778 460 c 0
 890 460 976 360 976 252 c 1
 924 255 l 1
 924 335 857 400 777 400 c 0
 697 400 631 335 631 255 c 1
358 451 m 1
 384 420 l 1
 281 316 l 1
 220 382 l 1
 246 407 l 1
 281 372 l 1
 358 451 l 1
EndSplineSet
Validated: 1
EndChar

StartChar: MultiplicationSignInDoubleCircl
Encoding: 15 10807 15
Width: 1024
Flags: W
HStem: 8 21G<627.837 668.8> 118 73<215.899 388.248> 400 60<702.176 852.196> 556 65<215.84 388.043>
VStem: 43 77<286.932 459.298> 485 66<290.198 458.191> 569 62<255 330.062> 712 52<244.32 318> 924 52<255 330.062>
LayerCount: 4
Fore
SplineSet
482 279 m 1025
120 374 m 0
 120 274 202 191 302 191 c 0
 333.777773434 191 363.838841164 199.381563141 390.065259895 214.026746126 c 1
 374.24417562 238.520902119 363.372551047 265.982887585 359.06553736 294.600581682 c 1
 162.086328277 489.988682452 l 1
 135.839992774 458.425293249 120 417.951182416 120 374 c 0
631 255 m 1
 569 252 l 1
 569 360 666 460 778 460 c 0
 890 460 976 360 976 252 c 1
 924 255 l 1
 924 335 857 400 777 400 c 0
 697 400 631 335 631 255 c 1
29 622 m 1
 78 667 l 1
 163.886454277 582.908600234 l 1
 203.992364527 607.016234321 251.213267981 621 301 621 c 0
 440 621 551 512 551 378 c 0
 551 329.656736087 536.943211968 282.354715733 512.445268025 241.63477777 c 1
 581.587150167 173.937983197 l 1
 654.049979098 182.171675821 712 243.598895272 712 318 c 1
 764 322 l 1
 764 236.048448353 709.529873643 155.163885204 630.833754514 125.720648716 c 1
 700 58 l 1
 648 8 l 1
 539.215046472 115.906238233 l 1
 501.741804717 121.248030512 466.821679613 137.52249101 437.782569111 160.995880562 c 1
 399.510084959 134.134267349 353.739813463 118 304 118 c 0
 165 118 43 244 43 378 c 0
 43 440.593667602 68.9655880839 497.732379723 110.80628027 540.854513593 c 1
 29 622 l 1
463.791672597 289.271497409 m 1
 477.310141414 314.698468092 485 343.561718408 485 374 c 0
 485 474 402 556 302 556 c 0
 270.344058289 556 240.491894141 547.782791106 214.473739638 533.378605403 c 1
 463.791672597 289.271497409 l 1
EndSplineSet
Validated: 1
EndChar

StartChar: WritingHandEmoji
Encoding: 16 9997 16
Width: 1024
Flags: W
HStem: 114 59<487.752 640.196> 118 73<215.899 388.248> 400 60<702.176 852.196> 556 65<217.539 388.043>
VStem: 43 77<286.932 458.191> 357 62<251.184 318> 485 66<287.605 458.191> 569 62<255 330.062> 712 52<243.938 318> 924 52<255 330.062>
LayerCount: 4
Fore
SplineSet
120 374 m 0x7fc0
 120 274 202 191 302 191 c 0
 333.777773434 191 363.838841164 199.381563141 390.065259895 214.026746126 c 1
 369.248182456 246.255683994 357 283.622762308 357 322 c 1
 419 318 l 1
 419 293.531160566 425.174342315 270.46558075 436.035127793 250.233932811 c 1
 466.331636203 282.972168307 485 326.574263764 485 374 c 0
 485 474 402 556 302 556 c 0
 202 556 120 474 120 374 c 0x7fc0
43 378 m 0
 43 512 162 621 301 621 c 0
 440 621 551 512 551 378 c 0
 551 311.792470537 524.634930306 247.5379092 481.192283449 199.469096748 c 1
 504.988738411 182.798513715 533.939144652 173 565 173 c 0
 645 173 712 238 712 318 c 1
 764 322 l 1
 764 214 678 114 566 114 c 0xbfc0
 518.470566312 114 473.642480361 132.008984906 437.782569111 160.995880562 c 1
 399.510084959 134.134267349 353.739813463 118 304 118 c 0
 165 118 43 244 43 378 c 0
631 255 m 1
 569 252 l 1
 569 360 666 460 778 460 c 0
 890 460 976 360 976 252 c 1
 924 255 l 1
 924 335 857 400 777 400 c 0
 697 400 631 335 631 255 c 1
404 464 m 2
 407 461 409 458 409 455 c 0
 409 452 407 449 404 447 c 2
 384 426 l 1
 339 471 l 1
 360 493 l 2
 362 495 365 496 368 496 c 0
 371 496 374 495 376 493 c 2
 404 464 l 2
189 322 m 1
 324 456 l 1
 369 411 l 1
 234 278 l 1
 189 278 l 1
 189 322 l 1
EndSplineSet
Validated: 1
EndChar

StartChar: PencilEmoji
Encoding: 17 9999 17
Width: 1024
Flags: W
HStem: 114 59<487.752 640.196> 118 73<215.899 388.248> 400 60<702.176 852.196> 556 65<217.539 388.043>
VStem: 43 77<286.932 458.191> 357 62<251.184 318> 485 66<287.605 458.191> 569 62<255 330.062> 712 52<243.938 318> 924 52<255 330.062>
LayerCount: 4
Fore
SplineSet
120 374 m 0x7fc0
 120 274 202 191 302 191 c 0
 333.777773434 191 363.838841164 199.381563141 390.065259895 214.026746126 c 1
 369.248182456 246.255683994 357 283.622762308 357 322 c 1
 419 318 l 1
 419 293.531160566 425.174342315 270.46558075 436.035127793 250.233932811 c 1
 466.331636203 282.972168307 485 326.574263764 485 374 c 0
 485 474 402 556 302 556 c 0
 202 556 120 474 120 374 c 0x7fc0
43 378 m 0
 43 512 162 621 301 621 c 0
 440 621 551 512 551 378 c 0
 551 311.792470537 524.634930306 247.5379092 481.192283449 199.469096748 c 1
 504.988738411 182.798513715 533.939144652 173 565 173 c 0
 645 173 712 238 712 318 c 1
 764 322 l 1
 764 214 678 114 566 114 c 0xbfc0
 518.470566312 114 473.642480361 132.008984906 437.782569111 160.995880562 c 1
 399.510084959 134.134267349 353.739813463 118 304 118 c 0
 165 118 43 244 43 378 c 0
631 255 m 1
 569 252 l 1
 569 360 666 460 778 460 c 0
 890 460 976 360 976 252 c 1
 924 255 l 1
 924 335 857 400 777 400 c 0
 697 400 631 335 631 255 c 1
404 464 m 2
 407 461 409 458 409 455 c 0
 409 452 407 449 404 447 c 2
 384 426 l 1
 339 471 l 1
 360 493 l 2
 362 495 365 496 368 496 c 0
 371 496 374 495 376 493 c 2
 404 464 l 2
189 322 m 1
 324 456 l 1
 369 411 l 1
 234 278 l 1
 189 278 l 1
 189 322 l 1
EndSplineSet
Validated: 1
EndChar

StartChar: UpperRightPencil
Encoding: 18 10000 18
Width: 1024
Flags: W
HStem: 114 59<487.752 640.196> 118 73<215.899 388.248> 400 60<702.176 852.196> 556 65<217.539 388.043>
VStem: 43 77<286.932 458.191> 357 62<251.184 318> 485 66<287.605 458.191> 569 62<255 330.062> 712 52<243.938 318> 924 52<255 330.062>
LayerCount: 4
Fore
SplineSet
120 374 m 0x7fc0
 120 274 202 191 302 191 c 0
 333.777773434 191 363.838841164 199.381563141 390.065259895 214.026746126 c 1
 369.248182456 246.255683994 357 283.622762308 357 322 c 1
 419 318 l 1
 419 293.531160566 425.174342315 270.46558075 436.035127793 250.233932811 c 1
 466.331636203 282.972168307 485 326.574263764 485 374 c 0
 485 474 402 556 302 556 c 0
 202 556 120 474 120 374 c 0x7fc0
43 378 m 0
 43 512 162 621 301 621 c 0
 440 621 551 512 551 378 c 0
 551 311.792470537 524.634930306 247.5379092 481.192283449 199.469096748 c 1
 504.988738411 182.798513715 533.939144652 173 565 173 c 0
 645 173 712 238 712 318 c 1
 764 322 l 1
 764 214 678 114 566 114 c 0xbfc0
 518.470566312 114 473.642480361 132.008984906 437.782569111 160.995880562 c 1
 399.510084959 134.134267349 353.739813463 118 304 118 c 0
 165 118 43 244 43 378 c 0
631 255 m 1
 569 252 l 1
 569 360 666 460 778 460 c 0
 890 460 976 360 976 252 c 1
 924 255 l 1
 924 335 857 400 777 400 c 0
 697 400 631 335 631 255 c 1
174.444335938 317.663085938 m 2
 171.490234375 320.708007812 169.536132812 323.73828125 169.581054688 326.73828125 c 0
 169.626953125 329.737304688 171.671875 332.70703125 174.702148438 334.661132812 c 2
 195.017578125 355.35546875 l 1
 239.331054688 309.6796875 l 1
 218 288 l 2
 215.969726562 286.030273438 212.955078125 285.076171875 209.955078125 285.12109375 c 0
 206.956054688 285.166992188 203.971679688 286.211914062 202.001953125 288.2421875 c 2
 174.444335938 317.663085938 l 2
391.571289062 456.389648438 m 1
 254.556640625 324.450195312 l 1
 210.243164062 370.126953125 l 1
 347.243164062 501.06640625 l 1
 392.237304688 500.384765625 l 1
 391.571289062 456.389648438 l 1
EndSplineSet
EndChar

StartChar: BlackNibEmoji
Encoding: 19 10002 19
Width: 1024
Flags: W
HStem: 114 59<487.752 640.196> 118 73<215.899 388.248> 400 60<702.176 852.196> 556 65<217.539 388.043>
VStem: 43 77<286.932 458.191> 357 62<251.184 318> 485 66<287.605 458.191> 569 62<255 330.062> 712 52<243.938 318> 924 52<255 330.062>
LayerCount: 4
Fore
SplineSet
120 374 m 0x7fc0
 120 274 202 191 302 191 c 0
 333.777773434 191 363.838841164 199.381563141 390.065259895 214.026746126 c 1
 369.248182456 246.255683994 357 283.622762308 357 322 c 1
 419 318 l 1
 419 293.531160566 425.174342315 270.46558075 436.035127793 250.233932811 c 1
 466.331636203 282.972168307 485 326.574263764 485 374 c 0
 485 474 402 556 302 556 c 0
 202 556 120 474 120 374 c 0x7fc0
43 378 m 0
 43 512 162 621 301 621 c 0
 440 621 551 512 551 378 c 0
 551 311.792470537 524.634930306 247.5379092 481.192283449 199.469096748 c 1
 504.988738411 182.798513715 533.939144652 173 565 173 c 0
 645 173 712 238 712 318 c 1
 764 322 l 1
 764 214 678 114 566 114 c 0xbfc0
 518.470566312 114 473.642480361 132.008984906 437.782569111 160.995880562 c 1
 399.510084959 134.134267349 353.739813463 118 304 118 c 0
 165 118 43 244 43 378 c 0
631 255 m 1
 569 252 l 1
 569 360 666 460 778 460 c 0
 890 460 976 360 976 252 c 1
 924 255 l 1
 924 335 857 400 777 400 c 0
 697 400 631 335 631 255 c 1
404 464 m 2
 407 461 409 458 409 455 c 0
 409 452 407 449 404 447 c 2
 384 426 l 1
 339 471 l 1
 360 493 l 2
 362 495 365 496 368 496 c 0
 371 496 374 495 376 493 c 2
 404 464 l 2
189 322 m 1
 324 456 l 1
 369 411 l 1
 234 278 l 1
 189 278 l 1
 189 322 l 1
EndSplineSet
Validated: 1
EndChar

StartChar: WhiteRightPointingTriangle
Encoding: 20 9655 20
Width: 1024
Flags: W
HStem: 114 59<487.752 640.196> 118 73<215.899 388.248> 400 60<702.176 852.196> 556 65<217.539 388.043>
VStem: 43 77<286.932 458.191> 357 62<251.184 318> 485 66<287.605 458.191> 569 62<255 330.062> 712 52<243.938 318> 924 52<255 330.062>
LayerCount: 4
Fore
SplineSet
120 374 m 0x7fc0
 120 274 202 191 302 191 c 0
 333.777773434 191 363.838841164 199.381563141 390.065259895 214.026746126 c 1
 369.248182456 246.255683994 357 283.622762308 357 322 c 1
 419 318 l 1
 419 293.531160566 425.174342315 270.46558075 436.035127793 250.233932811 c 1
 466.331636203 282.972168307 485 326.574263764 485 374 c 0
 485 474 402 556 302 556 c 0
 202 556 120 474 120 374 c 0x7fc0
43 378 m 0
 43 512 162 621 301 621 c 0
 440 621 551 512 551 378 c 0
 551 311.792470537 524.634930306 247.5379092 481.192283449 199.469096748 c 1
 504.988738411 182.798513715 533.939144652 173 565 173 c 0
 645 173 712 238 712 318 c 1
 764 322 l 1
 764 214 678 114 566 114 c 0xbfc0
 518.470566312 114 473.642480361 132.008984906 437.782569111 160.995880562 c 1
 399.510084959 134.134267349 353.739813463 118 304 118 c 0
 165 118 43 244 43 378 c 0
631 255 m 1
 569 252 l 1
 569 360 666 460 778 460 c 0
 890 460 976 360 976 252 c 1
 924 255 l 1
 924 335 857 400 777 400 c 0
 697 400 631 335 631 255 c 1
260 282 m 1
 260 452 l 1
 381 368 l 1
 260 282 l 1
EndSplineSet
Validated: 1
EndChar

StartChar: BlackRightPointingTriangle
Encoding: 21 9654 21
Width: 1024
Flags: W
HStem: 114 59<487.752 640.196> 118 73<215.899 388.248> 400 60<702.176 852.196> 556 65<217.539 388.043>
VStem: 43 77<286.932 458.191> 357 62<251.184 318> 485 66<287.605 458.191> 569 62<255 330.062> 712 52<243.938 318> 924 52<255 330.062>
LayerCount: 4
Fore
SplineSet
120 374 m 0x7fc0
 120 274 202 191 302 191 c 0
 333.777773434 191 363.838841164 199.381563141 390.065259895 214.026746126 c 1
 369.248182456 246.255683994 357 283.622762308 357 322 c 1
 419 318 l 1
 419 293.531160566 425.174342315 270.46558075 436.035127793 250.233932811 c 1
 466.331636203 282.972168307 485 326.574263764 485 374 c 0
 485 474 402 556 302 556 c 0
 202 556 120 474 120 374 c 0x7fc0
43 378 m 0
 43 512 162 621 301 621 c 0
 440 621 551 512 551 378 c 0
 551 311.792470537 524.634930306 247.5379092 481.192283449 199.469096748 c 1
 504.988738411 182.798513715 533.939144652 173 565 173 c 0
 645 173 712 238 712 318 c 1
 764 322 l 1
 764 214 678 114 566 114 c 0xbfc0
 518.470566312 114 473.642480361 132.008984906 437.782569111 160.995880562 c 1
 399.510084959 134.134267349 353.739813463 118 304 118 c 0
 165 118 43 244 43 378 c 0
631 255 m 1
 569 252 l 1
 569 360 666 460 778 460 c 0
 890 460 976 360 976 252 c 1
 924 255 l 1
 924 335 857 400 777 400 c 0
 697 400 631 335 631 255 c 1
260 282 m 1
 260 452 l 1
 381 368 l 1
 260 282 l 1
EndSplineSet
EndChar

StartChar: WhiteRightPointingPointer
Encoding: 22 9659 22
Width: 1024
Flags: W
HStem: 114 59<487.752 640.196> 118 73<215.899 388.248> 400 60<702.176 852.196> 556 65<217.539 388.043>
VStem: 43 77<286.932 458.191> 357 62<251.184 318> 485 66<287.605 458.191> 569 62<255 330.062> 712 52<243.938 318> 924 52<255 330.062>
LayerCount: 4
Fore
SplineSet
120 374 m 0x7fc0
 120 274 202 191 302 191 c 0
 333.777773434 191 363.838841164 199.381563141 390.065259895 214.026746126 c 1
 369.248182456 246.255683994 357 283.622762308 357 322 c 1
 419 318 l 1
 419 293.531160566 425.174342315 270.46558075 436.035127793 250.233932811 c 1
 466.331636203 282.972168307 485 326.574263764 485 374 c 0
 485 474 402 556 302 556 c 0
 202 556 120 474 120 374 c 0x7fc0
43 378 m 0
 43 512 162 621 301 621 c 0
 440 621 551 512 551 378 c 0
 551 311.792470537 524.634930306 247.5379092 481.192283449 199.469096748 c 1
 504.988738411 182.798513715 533.939144652 173 565 173 c 0
 645 173 712 238 712 318 c 1
 764 322 l 1
 764 214 678 114 566 114 c 0xbfc0
 518.470566312 114 473.642480361 132.008984906 437.782569111 160.995880562 c 1
 399.510084959 134.134267349 353.739813463 118 304 118 c 0
 165 118 43 244 43 378 c 0
631 255 m 1
 569 252 l 1
 569 360 666 460 778 460 c 0
 890 460 976 360 976 252 c 1
 924 255 l 1
 924 335 857 400 777 400 c 0
 697 400 631 335 631 255 c 1
260 282 m 1
 260 452 l 1
 381 368 l 1
 260 282 l 1
EndSplineSet
Validated: 1
EndChar

StartChar: GearWithoutHub
Encoding: 23 9965 23
Width: 1024
Flags: W
HStem: 114 59<487.752 640.196> 118 73<215.899 388.248> 370 44<195 239 283 326 370 414> 400 60<702.176 852.196> 556 65<217.539 388.043>
VStem: 43 77<286.932 458.191> 195 44<370 414> 283 43<370 414> 357 62<251.184 318> 370 44<370 414> 485 66<287.605 458.191> 569 62<255 330.062> 712 52<243.938 318> 924 52<255 330.062>
LayerCount: 4
Fore
SplineSet
120 374 m 0x4fbc
 120 274 202 191 302 191 c 0
 333.777773434 191 363.838841164 199.381563141 390.065259895 214.026746126 c 1
 369.248182456 246.255683994 357 283.622762308 357 322 c 1
 419 318 l 1
 419 293.531160566 425.174342315 270.46558075 436.035127793 250.233932811 c 1
 466.331636203 282.972168307 485 326.574263764 485 374 c 0
 485 474 402 556 302 556 c 0
 202 556 120 474 120 374 c 0x4fbc
43 378 m 0
 43 512 162 621 301 621 c 0
 440 621 551 512 551 378 c 0
 551 311.792470537 524.634930306 247.5379092 481.192283449 199.469096748 c 1
 504.988738411 182.798513715 533.939144652 173 565 173 c 0
 645 173 712 238 712 318 c 1
 764 322 l 1
 764 214 678 114 566 114 c 0x8f3c
 518.470566312 114 473.642480361 132.008984906 437.782569111 160.995880562 c 1
 399.510084959 134.134267349 353.739813463 118 304 118 c 0
 165 118 43 244 43 378 c 0
631 255 m 1
 569 252 l 1
 569 360 666 460 778 460 c 0
 890 460 976 360 976 252 c 1
 924 255 l 1
 924 335 857 400 777 400 c 0x1f3c
 697 400 631 335 631 255 c 1
283 370 m 1x2f3c
 283 414 l 1
 326 414 l 1
 326 370 l 1
 283 370 l 1x2f3c
370 370 m 1x2f7c
 370 414 l 1
 414 414 l 1
 414 370 l 1
 370 370 l 1x2f7c
195 370 m 1
 195 414 l 1
 239 414 l 1
 239 370 l 1
 195 370 l 1
EndSplineSet
Validated: 1
EndChar

StartChar: BlackStar
Encoding: 24 9733 24
Width: 1024
Flags: W
HStem: 114 59<488.018 639.693> 118 73<216.321 387.662> 400 60<702.176 852.196> 556 65<217.539 388.043>
VStem: 43 77<286.932 458.191> 357.236 61.764<292 318> 485 66<287.605 458.191> 569 62<255 330.062> 712 52<243.938 318> 924 52<255 330.062>
LayerCount: 4
Fore
SplineSet
120 374 m 0x7fc0
 120 274 202 191 302 191 c 0
 333.777773434 191 363.838841164 199.381563141 390.065259895 214.026746126 c 1
 374.40835316 238.266722936 363.598716678 265.413253671 359.201739682 293.710047972 c 1
 362 292 l 1
 357.236004848 312.757407447 l 2
 357.079307288 315.830296958 357 318.911878075 357 322 c 1
 419 318 l 1
 419 293.531160566 425.174342315 270.46558075 436.035127793 250.233932811 c 1
 466.331636203 282.972168307 485 326.574263764 485 374 c 0
 485 474 402 556 302 556 c 0
 202 556 120 474 120 374 c 0x7fc0
43 378 m 0
 43 512 162 621 301 621 c 0
 440 621 551 512 551 378 c 0
 551 311.792470537 524.634930306 247.5379092 481.192283449 199.469096748 c 1
 504.988738411 182.798513715 533.939144652 173 565 173 c 0
 645 173 712 238 712 318 c 1
 764 322 l 1
 764 214 678 114 566 114 c 0xbfc0
 518.470566312 114 473.642480361 132.008984906 437.782569111 160.995880562 c 1
 399.510084959 134.134267349 353.739813463 118 304 118 c 0
 165 118 43 244 43 378 c 0
631 255 m 1
 631 335 697 400 777 400 c 0
 857 400 924 335 924 255 c 1
 976 252 l 1
 976 360 890 460 778 460 c 0
 666 460 569 360 569 252 c 1
 631 255 l 1
396 394 m 1
 333 400 l 1
 308 458 l 1
 284 400 l 1
 221 394 l 1
 269 353 l 1
 254 292 l 1
 308 325 l 1
 359.201739682 293.710047972 l 1
 358.223016344 300.008632885 357.562016757 306.364209138 357.236004848 312.757407447 c 2
 348 353 l 1
 396 394 l 1
EndSplineSet
Validated: 5
EndChar

StartChar: key
Encoding: 25 128273 25
Width: 1024
Flags: W
HStem: 114 59<487.752 640.196> 118 73<215.899 388.248> 400 60<702.176 852.196> 556 65<217.539 388.043>
VStem: 43 77<286.932 458.191> 357 62<251.184 318> 368 38<393.728 432.765> 485 66<287.605 458.191> 569 62<255 330.062> 712 52<243.938 318> 924 52<255 330.062>
LayerCount: 4
Fore
SplineSet
120 374 m 0x7de0
 120 274 202 191 302 191 c 0
 333.777773434 191 363.838841164 199.381563141 390.065259895 214.026746126 c 1
 369.248182456 246.255683994 357 283.622762308 357 322 c 1
 419 318 l 1
 419 293.531160566 425.174342315 270.46558075 436.035127793 250.233932811 c 1
 466.331636203 282.972168307 485 326.574263764 485 374 c 0
 485 474 402 556 302 556 c 0
 202 556 120 474 120 374 c 0x7de0
43 378 m 0
 43 512 162 621 301 621 c 0
 440 621 551 512 551 378 c 0
 551 311.792470537 524.634930306 247.5379092 481.192283449 199.469096748 c 1
 504.988738411 182.798513715 533.939144652 173 565 173 c 0
 645 173 712 238 712 318 c 1
 764 322 l 1
 764 214 678 114 566 114 c 0xb9e0
 518.470566312 114 473.642480361 132.008984906 437.782569111 160.995880562 c 1
 399.510084959 134.134267349 353.739813463 118 304 118 c 0
 165 118 43 244 43 378 c 0
631 255 m 1
 569 252 l 1
 569 360 666 460 778 460 c 0
 890 460 976 360 976 252 c 1
 924 255 l 1
 924 335 857 400 777 400 c 0
 697 400 631 335 631 255 c 1
319 429 m 0
 314 423 311 416 312 408 c 0
 313 400 317 394 323 389 c 0
 329 384 336 382 344 383 c 0
 352 384 357 387 362 393 c 0
 367 399 369 406 368 414 c 0x3be0
 367 422 364 428 358 433 c 0
 352 438 345 440 337 439 c 0
 329 438 324 435 319 429 c 0
320 349 m 1
 262 277 l 1
 228 305 l 1
 242 323 l 1
 207 350 l 1
 234 384 l 1
 269 356 l 1
 285 377 l 1
 277 388 274 401 275 415 c 0
 276 429 280 441 289 452 c 0
 301 466 315 475 333 477 c 0
 351 479 367 474 382 462 c 0
 397 450 404 436 406 418 c 0
 408 400 404 385 392 371 c 0
 383 360 371 352 358 348 c 0
 345 344 333 344 320 349 c 1
EndSplineSet
Validated: 33
EndChar

StartChar: arrowdown
Encoding: 26 8595 26
Width: 1024
Flags: W
HStem: 114 59<487.752 640.196> 118 73<215.899 388.248> 400 60<702.176 852.196> 556 65<217.539 388.043>
VStem: 43 77<286.932 458.191> 281 43<407 494> 357 62<251.184 318> 485 66<287.605 458.191> 569 62<255 330.062> 712 52<243.938 318> 924 52<255 330.062>
LayerCount: 4
Fore
SplineSet
120 374 m 0x7fe0
 120 274 202 191 302 191 c 0
 333.777773434 191 363.838841164 199.381563141 390.065259895 214.026746126 c 1
 369.248182456 246.255683994 357 283.622762308 357 322 c 1
 419 318 l 1
 419 293.531160566 425.174342315 270.46558075 436.035127793 250.233932811 c 1
 466.331636203 282.972168307 485 326.574263764 485 374 c 0
 485 474 402 556 302 556 c 0
 202 556 120 474 120 374 c 0x7fe0
43 378 m 0
 43 512 162 621 301 621 c 0
 440 621 551 512 551 378 c 0
 551 311.792470537 524.634930306 247.5379092 481.192283449 199.469096748 c 1
 504.988738411 182.798513715 533.939144652 173 565 173 c 0
 645 173 712 238 712 318 c 1
 764 322 l 1
 764 214 678 114 566 114 c 0xbfe0
 518.470566312 114 473.642480361 132.008984906 437.782569111 160.995880562 c 1
 399.510084959 134.134267349 353.739813463 118 304 118 c 0
 165 118 43 244 43 378 c 0
631 255 m 1
 569 252 l 1
 569 360 666 460 778 460 c 0
 890 460 976 360 976 252 c 1
 924 255 l 1
 924 335 857 400 777 400 c 0
 697 400 631 335 631 255 c 1
324 407 m 1
 368 407 l 1
 302 341 l 1
 237 407 l 1
 281 407 l 1
 281 494 l 1
 324 494 l 1
 324 407 l 1
EndSplineSet
Validated: 1
EndChar

StartChar: arrowleft
Encoding: 27 8592 27
Width: 1024
Flags: W
HStem: 114 59<488.018 639.693> 118 73<216.321 387.662> 400 60<702.176 852.196> 402 43<301 388> 556 65<217.539 388.043>
VStem: 43 77<286.932 458.191> 357 62<251.184 318> 485 66<287.605 458.191> 569 62<255 330.062> 712 52<243.938 318> 924 52<255 330.062>
LayerCount: 4
Fore
SplineSet
301 402 m 1x1fe0
 301 358 l 1
 236 424 l 1
 301 489 l 1
 301 445 l 1
 388 445 l 1
 388 402 l 1
 301 402 l 1x1fe0
631 255 m 1
 569 252 l 1
 569 360 666 460 778 460 c 0
 890 460 976 360 976 252 c 1
 924 255 l 1
 924 335 857 400 777 400 c 0x2fe0
 697 400 631 335 631 255 c 1
43 378 m 0
 43 512 162 621 301 621 c 0
 440 621 551 512 551 378 c 0
 551 311.792470537 524.634930306 247.5379092 481.192283449 199.469096748 c 1
 504.988738411 182.798513715 533.939144652 173 565 173 c 0
 645 173 712 238 712 318 c 1
 764 322 l 1
 764 214 678 114 566 114 c 0x8fe0
 518.470566312 114 473.642480361 132.008984906 437.782569111 160.995880562 c 1
 399.510084959 134.134267349 353.739813463 118 304 118 c 0x4fe0
 165 118 43 244 43 378 c 0
120 374 m 0
 120 274 202 191 302 191 c 0x4fe0
 333.777773434 191 363.838841164 199.381563141 390.065259895 214.026746126 c 1
 369.248182456 246.255683994 357 283.622762308 357 322 c 1
 419 318 l 1
 419 293.531160566 425.174342315 270.46558075 436.035127793 250.233932811 c 1
 466.331636203 282.972168307 485 326.574263764 485 374 c 0
 485 474 402 556 302 556 c 0
 202 556 120 474 120 374 c 0
EndSplineSet
Validated: 1
EndChar

StartChar: arrowright
Encoding: 28 8594 28
Width: 1024
Flags: W
HStem: 114 59<487.752 640.196> 118 73<215.899 388.248> 396 43<216 303> 400 60<702.176 852.196> 556 65<217.539 388.043>
VStem: 43 77<286.932 458.191> 357 62<251.184 318> 485 66<287.605 458.191> 569 62<255 330.062> 712 52<243.938 318> 924 52<255 330.062>
LayerCount: 4
Fore
SplineSet
120 374 m 0x4fe0
 120 274 202 191 302 191 c 0
 333.777773434 191 363.838841164 199.381563141 390.065259895 214.026746126 c 1
 369.248182456 246.255683994 357 283.622762308 357 322 c 1
 419 318 l 1
 419 293.531160566 425.174342315 270.46558075 436.035127793 250.233932811 c 1
 466.331636203 282.972168307 485 326.574263764 485 374 c 0
 485 474 402 556 302 556 c 0
 202 556 120 474 120 374 c 0x4fe0
43 378 m 0
 43 512 162 621 301 621 c 0
 440 621 551 512 551 378 c 0
 551 311.792470537 524.634930306 247.5379092 481.192283449 199.469096748 c 1
 504.988738411 182.798513715 533.939144652 173 565 173 c 0
 645 173 712 238 712 318 c 1
 764 322 l 1
 764 214 678 114 566 114 c 0x8fe0
 518.470566312 114 473.642480361 132.008984906 437.782569111 160.995880562 c 1
 399.510084959 134.134267349 353.739813463 118 304 118 c 0
 165 118 43 244 43 378 c 0
631 255 m 1
 569 252 l 1
 569 360 666 460 778 460 c 0
 890 460 976 360 976 252 c 1
 924 255 l 1
 924 335 857 400 777 400 c 0x1fe0
 697 400 631 335 631 255 c 1
303 439 m 1x2fe0
 303 483 l 1
 369 418 l 1
 303 352 l 1
 303 396 l 1
 216 396 l 1
 216 439 l 1
 303 439 l 1x2fe0
EndSplineSet
Validated: 1
EndChar

StartChar: arrowup
Encoding: 29 8593 29
Width: 1024
Flags: W
HStem: 114 59<487.752 640.196> 118 73<215.899 388.248> 400 60<702.176 852.196> 556 65<217.539 388.043>
VStem: 43 77<286.932 458.191> 284 43<362 450> 357 62<251.184 318> 485 66<287.605 458.191> 569 62<255 330.062> 712 52<243.938 318> 924 52<255 330.062>
LayerCount: 4
Fore
SplineSet
120 374 m 0x7fe0
 120 274 202 191 302 191 c 0
 333.777773434 191 363.838841164 199.381563141 390.065259895 214.026746126 c 1
 369.248182456 246.255683994 357 283.622762308 357 322 c 1
 419 318 l 1
 419 293.531160566 425.174342315 270.46558075 436.035127793 250.233932811 c 1
 466.331636203 282.972168307 485 326.574263764 485 374 c 0
 485 474 402 556 302 556 c 0
 202 556 120 474 120 374 c 0x7fe0
43 378 m 0
 43 512 162 621 301 621 c 0
 440 621 551 512 551 378 c 0
 551 311.792470537 524.634930306 247.5379092 481.192283449 199.469096748 c 1
 504.988738411 182.798513715 533.939144652 173 565 173 c 0
 645 173 712 238 712 318 c 1
 764 322 l 1
 764 214 678 114 566 114 c 0xbfe0
 518.470566312 114 473.642480361 132.008984906 437.782569111 160.995880562 c 1
 399.510084959 134.134267349 353.739813463 118 304 118 c 0
 165 118 43 244 43 378 c 0
631 255 m 1
 569 252 l 1
 569 360 666 460 778 460 c 0
 890 460 976 360 976 252 c 1
 924 255 l 1
 924 335 857 400 777 400 c 0
 697 400 631 335 631 255 c 1
284 450 m 1
 240 450 l 1
 305 515 l 1
 371 450 l 1
 327 450 l 1
 327 362 l 1
 284 362 l 1
 284 450 l 1
EndSplineSet
Validated: 1
EndChar

StartChar: RightMagnifyingGlass
Encoding: 42 128270 30
Width: 1024
Flags: W
HStem: 114 59<487.124 640.196> 118 73<215.899 388.387> 330 44<275.097 361.829> 400 60<702.176 852.196> 482 44<275.019 361.829> 556 65<217.539 388.043>
VStem: 43 77<286.932 458.191> 220 44<384.983 470.752> 357 62<250.94 318> 374 43<388.629 467.371> 485 66<287.725 458.191> 569 62<255 330.062> 712 52<243.938 318> 924 52<255 330.062>
LayerCount: 4
Fore
SplineSet
236 376 m 1x3f7c
 226 392 220 409 220 428 c 0
 220 455 230 479 249 498 c 0
 268 517 291 526 318 526 c 0
 345 526 369 517 388 498 c 0
 407 479 417 455 417 428 c 0
 417 401 407 377 388 358 c 0
 369 339 345 330 318 330 c 0
 300 330 283 335 267 345 c 1
 199 278 l 1
 168 308 l 1
 236 376 l 1x3f7c
318 374 m 0
 333 374 346 379 357 390 c 0x3fbc
 368 401 374 413 374 428 c 0x3f7c
 374 443 368 455 357 466 c 0x3fbc
 346 477 333 482 318 482 c 0
 303 482 291 477 280 466 c 0
 269 455 264 443 264 428 c 0
 264 413 269 401 280 390 c 0
 291 379 303 374 318 374 c 0
631 255 m 1
 569 252 l 1
 569 360 666 460 778 460 c 0
 890 460 976 360 976 252 c 1
 924 255 l 1
 924 335 857 400 777 400 c 0
 697 400 631 335 631 255 c 1
43 378 m 0
 43 512 162 621 301 621 c 0
 440 621 551 512 551 378 c 0
 551 312 525 248 481 199 c 1
 505 183 534 173 565 173 c 0
 645 173 712 238 712 318 c 1
 764 322 l 1
 764 214 678 114 566 114 c 0xbf3c
 518 114 474 132 438 161 c 1
 400 134 354 118 304 118 c 0x7f3c
 165 118 43 244 43 378 c 0
120 374 m 0
 120 274 202 191 302 191 c 0
 334 191 364 199 390 214 c 1
 369 246 357 284 357 322 c 1
 419 318 l 1x7fbc
 419 294 425 270 436 250 c 1
 466 283 485 327 485 374 c 4
 485 474 402 556 302 556 c 4
 202 556 120 474 120 374 c 0
EndSplineSet
Validated: 1
EndChar

StartChar: ObserverEye
Encoding: 41 9215 31
Width: 1024
Flags: W
HStem: 114 59<488.018 639.693> 118 73<216.321 387.662> 282 33<267.078 344.717> 348 44<290.189 321.811> 400 60<702.176 852.196> 424 33<267.079 344.921> 556 65<217.539 388.043>
VStem: 43 77<286.932 458.191> 284 44<354.189 385.811> 359.361 59.6386<251.184 304.151> 485 66<287.605 458.191> 569 62<255 330.062> 712 52<243.938 318> 924 52<255 330.062>
LayerCount: 4
Fore
SplineSet
120 374 m 0x73fc
 120 274 202 191 302 191 c 0
 333.777773434 191 363.838841164 199.381563141 390.065259895 214.026746126 c 1
 374.594638318 237.978316804 363.856627982 264.767688772 359.361405491 292.700517547 c 1
 368.588923928 296.525948977 377.483350802 301.322233868 386 307 c 0
 391.641570756 310.761047171 396.896351158 314.798373167 401.764341206 319.111977987 c 1
 419 318 l 1
 419 293.531160566 425.174342315 270.46558075 436.035127793 250.233932811 c 1
 466.331636203 282.972168307 485 326.574263764 485 374 c 0
 485 474 402 556 302 556 c 0
 202 556 120 474 120 374 c 0x73fc
43 378 m 0
 43 512 162 621 301 621 c 0
 440 621 551 512 551 378 c 0
 551 311.792470537 524.634930306 247.5379092 481.192283449 199.469096748 c 1
 504.988738411 182.798513715 533.939144652 173 565 173 c 0
 645 173 712 238 712 318 c 1
 764 322 l 1
 764 214 678 114 566 114 c 0xb3fc
 518.470566312 114 473.642480361 132.008984906 437.782569111 160.995880562 c 1
 399.510084959 134.134267349 353.739813463 118 304 118 c 0
 165 118 43 244 43 378 c 0
631 255 m 1
 631 335 697 400 777 400 c 0
 857 400 924 335 924 255 c 1
 976 252 l 1
 976 360 890 460 778 460 c 0x3bfc
 666 460 569 360 569 252 c 1
 631 255 l 1
306 315 m 0
 290 315 278 320 267 331 c 0
 256 342 251 355 251 370 c 0
 251 385 256 398 267 409 c 0
 278 420 291 424 306 424 c 0x37fc
 321 424 334 420 345 409 c 0
 356 398 360 385 360 370 c 0
 360 355 356 342 345 331 c 0
 334 320 321 315 306 315 c 0
306 457 m 0
 277 457 250 449 226 433 c 0
 202 417 185 395 175 370 c 1
 185 344 202 323 226 307 c 0
 250 291 277 282 306 282 c 0
 324.709048885 282 342.58568752 285.745846126 359.361405491 292.700517547 c 1
 357.807912083 302.353758394 357 312.143563235 357 322 c 1
 401.764341206 319.111977987 l 1
 417.605434884 333.149027648 429.350654482 350.111701653 437 370 c 1
 427 395 410 417 386 433 c 0
 362 449 335 457 306 457 c 0
306 392 m 0
 312 392 318 390 322 386 c 0
 326 382 328 376 328 370 c 0
 328 364 326 358 322 354 c 0
 318 350 312 348 306 348 c 0
 300 348 294 350 290 354 c 0
 286 358 284 364 284 370 c 0
 284 376 286 382 290 386 c 0
 294 390 299 392 306 392 c 0
EndSplineSet
Validated: 5
EndChar

StartChar: FleuronCenter
Encoding: 40 10086 32
Width: 1024
Flags: W
HStem: 114 59<488.018 639.693> 118 73<216.321 387.662> 400 60<702.176 852.196> 556 65<217.539 388.043>
VStem: 43 77<286.932 458.191> 214 175<336.935 415.631> 357 62<251.184 318> 485 66<287.605 458.191> 569 62<255 330.062> 712 52<243.938 318> 924 52<255 330.062>
LayerCount: 4
Fore
SplineSet
301 273 m 1x3de0
 289 285 l 1
 279 294 l 2
 256 317 239 332 231 342 c 0
 219 357 214 372 214 385 c 0
 214 398 218 409 228 419 c 0
 238 429 249 433 262 433 c 0
 270 433 277 432 284 429 c 0
 291 426 297 421 301 416 c 1
 306 421 311 426 318 429 c 0
 325 432 333 433 341 433 c 0
 354 433 365 429 375 420 c 0
 385 411 389 400 389 386 c 0
 389 372 383 357 371 342 c 0
 363 332 348 317 325 294 c 2
 314 285 l 1
 301 273 l 1x3de0
631 255 m 1
 569 252 l 1
 569 360 666 460 778 460 c 0
 890 460 976 360 976 252 c 1
 924 255 l 1
 924 335 857 400 777 400 c 0
 697 400 631 335 631 255 c 1
43 378 m 0
 43 512 162 621 301 621 c 0
 440 621 551 512 551 378 c 0
 551 311.792470537 524.634930306 247.5379092 481.192283449 199.469096748 c 1
 504.988738411 182.798513715 533.939144652 173 565 173 c 0
 645 173 712 238 712 318 c 1
 764 322 l 1
 764 214 678 114 566 114 c 0xb9e0
 518.470566312 114 473.642480361 132.008984906 437.782569111 160.995880562 c 1
 399.510084959 134.134267349 353.739813463 118 304 118 c 0x79e0
 165 118 43 244 43 378 c 0
120 374 m 0
 120 274 202 191 302 191 c 0
 333.777773434 191 363.838841164 199.381563141 390.065259895 214.026746126 c 1
 369.248182456 246.255683994 357 283.622762308 357 322 c 1
 419 318 l 1x7be0
 419 293.531160566 425.174342315 270.46558075 436.035127793 250.233932811 c 1
 466.331636203 282.972168307 485 326.574263764 485 374 c 0
 485 474 402 556 302 556 c 0
 202 556 120 474 120 374 c 0
EndSplineSet
Validated: 1
EndChar

StartChar: HighVoltageSign
Encoding: 39 9889 33
Width: 1024
Flags: W
HStem: 114 59<487.124 640.196> 118 73<215.899 388.387> 400 60<702.176 852.196> 556 65<217.539 388.043>
VStem: 43 77<286.932 458.191> 357 62<250.94 318> 485 66<287.725 458.191> 569 62<255 330.062> 712 52<243.938 318> 924 52<255 330.062>
LayerCount: 4
Fore
SplineSet
120 374 m 0x7fc0
 120 274 202 191 302 191 c 0
 334 191 364 199 390 214 c 1
 369 246 357 284 357 322 c 1
 419 318 l 1
 419 294 425 270 436 250 c 1
 466 283 485 327 485 374 c 0
 485 474 402 556 302 556 c 0
 202 556 120 474 120 374 c 0x7fc0
43 378 m 0
 43 512 162 621 301 621 c 0
 440 621 551 512 551 378 c 0
 551 312 525 248 481 199 c 1
 505 183 534 173 565 173 c 0
 645 173 712 238 712 318 c 1
 764 322 l 1
 764 214 678 114 566 114 c 0xbfc0
 518 114 474 132 438 161 c 1
 400 134 354 118 304 118 c 0
 165 118 43 244 43 378 c 0
631 255 m 1
 569 252 l 1
 569 360 666 460 778 460 c 0
 890 460 976 360 976 252 c 1
 924 255 l 1
 924 335 857 400 777 400 c 0
 697 400 631 335 631 255 c 1
378 400 m 1
 301 247 l 1
 301 356 l 1
 258 356 l 1
 258 487 l 1
 367 487 l 1
 330 400 l 1
 378 400 l 1
EndSplineSet
Validated: 1
EndChar

StartChar: NameMe.52
Encoding: 52 -1 34
Width: 1024
Flags: W
HStem: 114 59<487.124 640.196> 118 73<215.899 388.387> 400 60<702.176 852.196> 556 65<217.539 388.043>
VStem: 43 77<286.932 458.191> 357 62<250.94 318> 485 66<287.725 458.191> 569 62<255 330.062> 712 52<243.938 318> 924 52<255 330.062>
LayerCount: 4
Fore
SplineSet
120 374 m 0x7fc0
 120 274 202 191 302 191 c 0
 334 191 364 199 390 214 c 1
 369 246 357 284 357 322 c 1
 419 318 l 1
 419 294 425 270 436 250 c 1
 466 283 485 327 485 374 c 0
 485 474 402 556 302 556 c 0
 202 556 120 474 120 374 c 0x7fc0
43 378 m 0
 43 512 162 621 301 621 c 0
 440 621 551 512 551 378 c 0
 551 312 525 248 481 199 c 1
 505 183 534 173 565 173 c 0
 645 173 712 238 712 318 c 1
 764 322 l 1
 764 214 678 114 566 114 c 0xbfc0
 518 114 474 132 438 161 c 1
 400 134 354 118 304 118 c 0
 165 118 43 244 43 378 c 0
631 255 m 1
 569 252 l 1
 569 360 666 460 778 460 c 0
 890 460 976 360 976 252 c 1
 924 255 l 1
 924 335 857 400 777 400 c 0
 697 400 631 335 631 255 c 1
EndSplineSet
Validated: 1
EndChar

StartChar: NameMe.53
Encoding: 53 -1 35
Width: 1024
Flags: W
HStem: 114 59<487.124 640.196> 118 73<215.899 388.387> 400 60<702.176 852.196> 556 65<217.539 388.043>
VStem: 43 77<286.932 458.191> 357 62<250.94 318> 485 66<287.725 458.191> 569 62<255 330.062> 712 52<243.938 318> 924 52<255 330.062>
LayerCount: 4
Fore
SplineSet
120 374 m 0x7fc0
 120 274 202 191 302 191 c 0
 334 191 364 199 390 214 c 1
 369 246 357 284 357 322 c 1
 419 318 l 1
 419 294 425 270 436 250 c 1
 466 283 485 327 485 374 c 0
 485 474 402 556 302 556 c 0
 202 556 120 474 120 374 c 0x7fc0
43 378 m 0
 43 512 162 621 301 621 c 0
 440 621 551 512 551 378 c 0
 551 312 525 248 481 199 c 1
 505 183 534 173 565 173 c 0
 645 173 712 238 712 318 c 1
 764 322 l 1
 764 214 678 114 566 114 c 0xbfc0
 518 114 474 132 438 161 c 1
 400 134 354 118 304 118 c 0
 165 118 43 244 43 378 c 0
631 255 m 1
 569 252 l 1
 569 360 666 460 778 460 c 0
 890 460 976 360 976 252 c 1
 924 255 l 1
 924 335 857 400 777 400 c 0
 697 400 631 335 631 255 c 1
EndSplineSet
Validated: 1
EndChar

StartChar: NameMe.54
Encoding: 54 -1 36
Width: 1024
Flags: W
HStem: 114 59<487.124 640.196> 118 73<215.899 388.387> 400 60<702.176 852.196> 556 65<217.539 388.043>
VStem: 43 77<286.932 458.191> 357 62<250.94 318> 485 66<287.725 458.191> 569 62<255 330.062> 712 52<243.938 318> 924 52<255 330.062>
LayerCount: 4
Fore
SplineSet
120 374 m 0x7fc0
 120 274 202 191 302 191 c 0
 334 191 364 199 390 214 c 1
 369 246 357 284 357 322 c 1
 419 318 l 1
 419 294 425 270 436 250 c 1
 466 283 485 327 485 374 c 0
 485 474 402 556 302 556 c 0
 202 556 120 474 120 374 c 0x7fc0
43 378 m 0
 43 512 162 621 301 621 c 0
 440 621 551 512 551 378 c 0
 551 312 525 248 481 199 c 1
 505 183 534 173 565 173 c 0
 645 173 712 238 712 318 c 1
 764 322 l 1
 764 214 678 114 566 114 c 0xbfc0
 518 114 474 132 438 161 c 1
 400 134 354 118 304 118 c 0
 165 118 43 244 43 378 c 0
631 255 m 1
 569 252 l 1
 569 360 666 460 778 460 c 0
 890 460 976 360 976 252 c 1
 924 255 l 1
 924 335 857 400 777 400 c 0
 697 400 631 335 631 255 c 1
EndSplineSet
Validated: 1
EndChar

StartChar: RoundPushpin
Encoding: 43 128205 37
Width: 1024
Flags: W
HStem: 114 59<488.018 639.693> 118 73<216.321 387.662> 400 60<702.176 852.196> 447 53<283.63 331.003> 556 65<217.539 388.043>
VStem: 43 77<286.932 458.191> 228 51<399.305 443> 357 62<251.184 318> 485 66<287.605 458.191> 569 62<255 330.062> 712 52<243.938 318> 924 52<255 330.062>
LayerCount: 4
Fore
SplineSet
305 500 m 0x1ff0
 325 500 343 492 358 477 c 0
 373 462 381 444 381 423 c 0
 381 407 374 386 361 361 c 0
 351 343 340 325 325 305 c 2
 305 282 l 1
 285 305 l 2
 270 325 258 343 248 361 c 0
 235 386 228 407 228 423 c 0
 228 444 236 462 251 477 c 0
 266 492 284 500 305 500 c 0x1ff0
305 395 m 0
 313 395 320 398 325 403 c 0
 330 408 333 415 332 421 c 0
 331 427 328 434 323 439 c 0
 318 444 311 447 305 447 c 0
 299 447 292 445 287 440 c 0
 282 435 279 428 279 421 c 0
 279 414 281 408 286 403 c 0
 291 398 297 395 305 395 c 0
631 255 m 1
 569 252 l 1
 569 360 666 460 778 460 c 0
 890 460 976 360 976 252 c 1
 924 255 l 1
 924 335 857 400 777 400 c 0x2ff0
 697 400 631 335 631 255 c 1
43 378 m 0
 43 512 162 621 301 621 c 0
 440 621 551 512 551 378 c 0
 551 311.792470537 524.634930306 247.5379092 481.192283449 199.469096748 c 1
 504.988738411 182.798513715 533.939144652 173 565 173 c 0
 645 173 712 238 712 318 c 1
 764 322 l 1
 764 214 678 114 566 114 c 0x8ff0
 518.470566312 114 473.642480361 132.008984906 437.782569111 160.995880562 c 1
 399.510084959 134.134267349 353.739813463 118 304 118 c 0x4ff0
 165 118 43 244 43 378 c 0
120 374 m 0
 120 274 202 191 302 191 c 0x4ff0
 333.777773434 191 363.838841164 199.381563141 390.065259895 214.026746126 c 1
 369.248182456 246.255683994 357 283.622762308 357 322 c 1
 419 318 l 1
 419 293.531160566 425.174342315 270.46558075 436.035127793 250.233932811 c 1
 466.331636203 282.972168307 485 326.574263764 485 374 c 0
 485 474 402 556 302 556 c 0
 202 556 120 474 120 374 c 0
EndSplineSet
Validated: 1
EndChar

StartChar: lock
Encoding: 30 128274 38
Width: 1024
Flags: W
HStem: 114 59<487.124 640.196> 118 73<215.899 388.387> 288 131<243.189 258 281 346> 400 60<702.176 852.196> 462 22<289.34 336.66> 556 65<217.539 388.043>
VStem: 43 77<286.932 458.191> 237 152<320 411.811> 258 23<419 452.717> 346 22<419 452.717> 485 66<287.725 458.191> 569 62<255 330.062> 712 52<243.938 318> 924 52<255 330.062>
LayerCount: 4
Fore
SplineSet
120 374 m 0x6f3c
 120 274 202 191 302 191 c 0
 334 191 364 199 390 214 c 1
 375 237 365 262 360 288 c 1
 258 288 l 2x6ebc
 253 288 247 290 243 294 c 0
 239 298 237 303 237 309 c 2
 237 396 l 2x6f3c
 237 402 239 408 243 412 c 0
 247 416 253 419 258 419 c 1
 258 429 l 2
 258 444 263 457 274 468 c 0
 285 479 298 484 313 484 c 0
 328 484 341 479 352 468 c 0
 363 457 368 444 368 429 c 2
 368 419 l 1x6efc
 374 419 379 416 383 412 c 0
 387 408 389 402 389 396 c 2
 389 320 l 1
 419 318 l 1
 419 294 425 270 436 250 c 1
 466 283 485 327 485 374 c 4
 485 474 402 556 302 556 c 4
 202 556 120 474 120 374 c 0x6f3c
43 378 m 0
 43 512 162 621 301 621 c 0
 440 621 551 512 551 378 c 0
 551 312 525 248 481 199 c 1
 505 183 534 173 565 173 c 0
 645 173 712 238 712 318 c 1
 764 322 l 1
 764 214 678 114 566 114 c 0x8e3c
 518 114 474 132 438 161 c 1
 400 134 354 118 304 118 c 0
 165 118 43 244 43 378 c 0
631 255 m 1
 569 252 l 1
 569 360 666 460 778 460 c 0
 890 460 976 360 976 252 c 1
 924 255 l 1
 924 335 857 400 777 400 c 0x1e3c
 697 400 631 335 631 255 c 1
346 429 m 2x2efc
 346 439 342 447 336 453 c 0
 330 459 322 462 313 462 c 0
 304 462 296 459 290 453 c 0
 284 447 281 439 281 429 c 2
 281 419 l 1
 346 419 l 1
 346 429 l 2x2efc
EndSplineSet
Validated: 1
EndChar

StartChar: ClockwiseGappedCircleArrow
Encoding: 31 10227 39
Width: 1024
Flags: W
HStem: 114 59<487.752 640.196> 118 73<215.899 388.248> 287 32<268.354 344.473> 320.771 20.2286<376.044 380.788> 400 60<702.176 852.196> 429 33<268.354 344.453> 556 65<217.539 388.043>
VStem: 43 77<286.932 458.191> 219 33<335.075 412.925> 357.959 61.0408<251.301 318> 485 66<287.605 458.191> 569 62<255 330.062> 712 52<243.938 318> 924 52<255 330.062>
LayerCount: 4
Fore
SplineSet
120 374 m 0x73fc
 120 274 202 191 302 191 c 0
 333.777773434 191 363.838841164 199.381563141 390.065259895 214.026746126 c 1
 372.639311576 241.005547896 361.217881217 271.584820514 357.959178751 303.343157552 c 1
 365.158826664 308.419034607 371.146734841 314.228437849 376.043807397 320.771367265 c 1
 419 318 l 1
 419 293.531160566 425.174342315 270.46558075 436.035127793 250.233932811 c 1
 466.331636203 282.972168307 485 326.574263764 485 374 c 0
 485 474 402 556 302 556 c 0
 202 556 120 474 120 374 c 0x73fc
43 378 m 0
 43 512 162 621 301 621 c 0
 440 621 551 512 551 378 c 0
 551 311.792470537 524.634930306 247.5379092 481.192283449 199.469096748 c 1
 504.988738411 182.798513715 533.939144652 173 565 173 c 0
 645 173 712 238 712 318 c 1
 764 322 l 1
 764 214 678 114 566 114 c 0xb3fc
 518.470566312 114 473.642480361 132.008984906 437.782569111 160.995880562 c 1
 399.510084959 134.134267349 353.739813463 118 304 118 c 0
 165 118 43 244 43 378 c 0
631 255 m 1
 631 335 697 400 777 400 c 0
 857 400 924 335 924 255 c 1
 976 252 l 1
 976 360 890 460 778 460 c 0x3bfc
 666 460 569 360 569 252 c 1
 631 255 l 1
393 374 m 1
 393 462 l 1
 368 436 l 1
 351 453 330 462 306 462 c 0
 282 462 262 453 245 436 c 0
 228 419 219 398 219 374 c 0
 219 350 228 329 245 312 c 0
 262 295 282 287 306 287 c 0
 324 287 341 292 356 302 c 0
 356.662792881 302.441861921 357.315823664 302.8895811 357.959178751 303.343157552 c 0
 357.325027875 309.523402071 356.999999869 315.748297812 357 322 c 1
 376.043807397 320.771367265 l 1
 380.612651148 326.875753322 384.231986588 333.618630901 387 341 c 1
 350 341 l 1
 339 327 324 319 306 319 c 0
 291 319 279 324 268 335 c 0
 257 346 252 359 252 374 c 0
 252 389 257 402 268 413 c 0
 279 424 291 429 306 429 c 0x37fc
 321 429 334 424 345 413 c 1
 306 374 l 1
 393 374 l 1
EndSplineSet
Validated: 5
EndChar

StartChar: ClockFaceEightOClock
Encoding: 32 128343 40
Width: 1024
Flags: W
HStem: 114 59<487.124 640.196> 118 73<215.899 388.387> 400 60<702.176 852.196> 556 65<217.539 388.043>
VStem: 43 77<286.932 458.191> 293 33<390 483> 357 62<250.94 318> 485 66<287.725 458.191> 569 62<255 330.062> 712 52<243.938 318> 924 52<255 330.062>
LayerCount: 4
Fore
SplineSet
120 374 m 0x7fe0
 120 274 202 191 302 191 c 0
 334 191 364 199 390 214 c 1
 369 246 357 284 357 322 c 1
 419 318 l 1
 419 294 425 270 436 250 c 1
 466 283 485 327 485 374 c 0
 485 474 402 556 302 556 c 0
 202 556 120 474 120 374 c 0x7fe0
43 378 m 0
 43 512 162 621 301 621 c 0
 440 621 551 512 551 378 c 0
 551 312 525 248 481 199 c 1
 505 183 534 173 565 173 c 0
 645 173 712 238 712 318 c 1
 764 322 l 1
 764 214 678 114 566 114 c 0xbfe0
 518 114 474 132 438 161 c 1
 400 134 354 118 304 118 c 0
 165 118 43 244 43 378 c 0
631 255 m 1
 569 252 l 1
 569 360 666 460 778 460 c 0
 890 460 976 360 976 252 c 1
 924 255 l 1
 924 335 857 400 777 400 c 0
 697 400 631 335 631 255 c 1
293 483 m 1
 326 483 l 1
 326 374 l 1
 247 327 l 1
 230 353 l 1
 293 390 l 1
 293 483 l 1
EndSplineSet
Validated: 1
EndChar

StartChar: exclam
Encoding: 33 33 41
Width: 1024
Flags: W
HStem: 114 59<487.124 640.196> 118 73<215.899 388.387> 275 44<282 326> 400 60<702.176 852.196> 556 65<217.539 388.043>
VStem: 43 77<286.932 458.191> 282 44<275 319 364 495> 357 62<250.94 318> 485 66<287.725 458.191> 569 62<255 330.062> 712 52<243.938 318> 924 52<255 330.062>
LayerCount: 4
Fore
SplineSet
120 374 m 0x7ff0
 120 274 202 191 302 191 c 0
 334 191 364 199 390 214 c 1
 369 246 357 284 357 322 c 1
 419 318 l 1
 419 294 425 270 436 250 c 1
 466 283 485 327 485 374 c 0
 485 474 402 556 302 556 c 0
 202 556 120 474 120 374 c 0x7ff0
43 378 m 0
 43 512 162 621 301 621 c 4
 440 621 551 512 551 378 c 4
 551 312 525 248 481 199 c 1
 505 183 534 173 565 173 c 0
 645 173 712 238 712 318 c 1
 764 322 l 1
 764 214 678 114 566 114 c 0xbff0
 518 114 474 132 438 161 c 1
 400 134 354 118 304 118 c 0
 165 118 43 244 43 378 c 0
631 255 m 1
 569 252 l 1
 569 360 666 460 778 460 c 0
 890 460 976 360 976 252 c 1
 924 255 l 1
 924 335 857 400 777 400 c 0
 697 400 631 335 631 255 c 1
282 495 m 1
 326 495 l 1
 326 364 l 1
 282 364 l 1
 282 495 l 1
282 275 m 1
 282 319 l 1
 326 319 l 1
 326 275 l 1
 282 275 l 1
EndSplineSet
Validated: 1
EndChar

StartChar: OpenLock
Encoding: 34 128275 42
Width: 1024
Flags: W
HStem: 114 59<487.124 640.196> 118 73<215.899 388.387> 400 60<702.176 852.196> 485 26<277.814 329.134> 556 65<217.539 388.043>
VStem: 43 77<286.932 458.191> 243 27<457 476.764> 336 29<457 476.764> 391 28<279.235 318> 485 66<287.725 458.191> 569 62<255 330.062> 712 52<243.938 318> 924 52<255 330.062>
LayerCount: 4
Fore
SplineSet
43 378 m 0x7ff8
 43 512 162 621 301 621 c 0
 440 621 551 512 551 378 c 0
 551 312 525 248 481 199 c 1
 505 183 534 173 565 173 c 0
 645 173 712 238 712 318 c 1
 764 322 l 1
 764 214 678 114 566 114 c 0xbff8
 518 114 474 132 438 161 c 1
 400 134 354 118 304 118 c 0
 165 118 43 244 43 378 c 0x7ff8
631 255 m 1
 631 335 697 400 777 400 c 0
 857 400 924 335 924 255 c 1
 976 252 l 1
 976 360 890 460 778 460 c 0
 666 460 569 360 569 252 c 1
 631 255 l 1
365 402 m 2
 270 402 l 1
 270 457 l 2
 270 465 274 472 280 477 c 0
 286 482 295 485 304 485 c 0
 313 485 321 482 327 477 c 0
 333 472 336 465 336 457 c 2
 336 445 l 1
 365 445 l 1
 365 457 l 2
 365 472 359 484 346 495 c 0
 333 506 319 511 303 511 c 0
 287 511 273 506 261 495 c 0
 249 484 243 472 243 457 c 2
 243 402 l 1
 236 402 229 399 224 394 c 0
 219 389 216 383 216 376 c 2
 216 299 l 2
 216 291 219 285 224 280 c 0
 229 275 236 271 243 271 c 2
 362 271 l 2
 363 271 363 271 364 271 c 1
 360.993151356 281.22328539 368.112378133 275.895812098 374.266063304 273.721091187 c 0
 377.066063628 274.954149327 379.644042526 276.644042526 382 279 c 2
 391 319.806451613 l 1
 391 320 l 1
 419 318 l 1
 419 294 425 270 436 250 c 1
 466 283 485 327 485 374 c 0
 485 474 402 556 302 556 c 0
 202 556 120 474 120 374 c 0
 120 274 202 191 302 191 c 0x7ff8
 334 191 364 199 390 214 c 1
 379 232 370 251 364 271 c 1
 367.701659537 271.528808505 371.123680638 272.337255446 374.266063304 273.721091187 c 0
 378.345159859 272.279532783 382 272.22328539 382 279 c 1
 388 284 391 290 391 297 c 2
 391 319.806451613 l 1
 391 320 l 1
 391 374 l 2
 391 382 388 388 383 394 c 0
 378 400 372 402 365 402 c 2
EndSplineSet
Validated: 5
EndChar

StartChar: GraduationCap
Encoding: 35 127891 43
Width: 1024
Flags: W
HStem: 114 59<487.752 640.196> 118 73<215.899 388.248> 400 60<702.176 852.196>
VStem: 43 77<286.932 459.468> 357 62<251.184 318> 485 66<287.605 459.811> 569 62<255 330.062> 712 52<243.938 318> 924 52<255 330.062>
LayerCount: 4
Fore
SplineSet
437.782569111 160.995880562 m 1xbf80
 399.510084959 134.134267349 353.739813463 118 304 118 c 0x7f80
 165 118 43 244 43 378 c 0
 43 490.67637911 127.140120445 585.676262328 236.560471278 613.057924757 c 1
 299 579 l 1
 361.950878774 613.788643533 l 1
 471.081385205 587.403882063 551 491.70178504 551 378 c 0
 551 311.792470537 524.634930306 247.5379092 481.192283449 199.469096748 c 1
 504.988738411 182.798513715 533.939144652 173 565 173 c 0
 645 173 712 238 712 318 c 1
 764 322 l 1
 764 214 678 114 566 114 c 0
 518.470566312 114 473.642480361 132.008984906 437.782569111 160.995880562 c 1xbf80
419 710 m 1
 299 775 l 1
 178 710 l 1
 299 644 l 1
 419 710 l 1
375 621 m 1
 375 665 l 1
 299 623 l 1
 222 665 l 1
 222 621 l 1
 236.560471278 613.057924757 l 1
 257.267899909 618.239811091 375 621 375 621 c 1
631 255 m 1
 631 335 697 400 777 400 c 0
 857 400 924 335 924 255 c 1
 976 252 l 1
 976 360 890 460 778 460 c 0
 666 460 569 360 569 252 c 1
 631 255 l 1
120 374 m 0
 120 274 202 191 302 191 c 0
 333.777773434 191 363.838841164 199.381563141 390.065259895 214.026746126 c 1
 369.248182456 246.255683994 357 283.622762308 357 322 c 1
 419 318 l 1
 419 293.531160566 425.174342315 270.46558075 436.035127793 250.233932811 c 1
 466.331636203 282.972168307 485 326.574263764 485 374 c 0
 485 474 402 556 302 556 c 0
 202 556 120 474 120 374 c 0
EndSplineSet
Validated: 5
EndChar

StartChar: GraduationCapAlt
Encoding: 36 127913 44
Width: 1024
Flags: W
HStem: 114 59<487.752 640.196> 118 73<215.899 388.248> 400 60<702.176 852.196> 556 65<217.539 388.043>
VStem: 43 77<286.932 458.191> 357 62<251.184 318> 485 66<287.605 458.191> 569 62<255 330.062> 712 52<243.938 318> 924 52<255 330.062>
LayerCount: 4
Fore
SplineSet
120 374 m 0x7fc0
 120 274 202 191 302 191 c 0
 333.777773434 191 363.838841164 199.381563141 390.065259895 214.026746126 c 1
 369.248182456 246.255683994 357 283.622762308 357 322 c 1
 419 318 l 1
 419 293.531160566 425.174342315 270.46558075 436.035127793 250.233932811 c 1
 466.331636203 282.972168307 485 326.574263764 485 374 c 0
 485 474 402 556 302 556 c 0
 202 556 120 474 120 374 c 0x7fc0
43 378 m 0
 43 512 162 621 301 621 c 0
 440 621 551 512 551 378 c 0
 551 311.792470537 524.634930306 247.5379092 481.192283449 199.469096748 c 1
 504.988738411 182.798513715 533.939144652 173 565 173 c 0
 645 173 712 238 712 318 c 1
 764 322 l 1
 764 214 678 114 566 114 c 0xbfc0
 518.470566312 114 473.642480361 132.008984906 437.782569111 160.995880562 c 1
 399.510084959 134.134267349 353.739813463 118 304 118 c 0
 165 118 43 244 43 378 c 0
631 255 m 1
 569 252 l 1
 569 360 666 460 778 460 c 0
 890 460 976 360 976 252 c 1
 924 255 l 1
 924 335 857 400 777 400 c 0
 697 400 631 335 631 255 c 1
222 400 m 1
 299 358 l 1
 375 400 l 1
 375 356 l 1
 299 314 l 1
 222 356 l 1
 222 400 l 1
419 445 m 1
 299 380 l 1
 178 445 l 1
 299 511 l 1
 419 445 l 1
EndSplineSet
Validated: 1
EndChar

StartChar: ClockwiseSemicircleArrows
Encoding: 37 128472 45
Width: 1024
Flags: W
HStem: 114 59<487.124 640.196> 118 73<215.899 388.387> 261 44<257.063 355.777> 400 60<702.176 852.196> 436 43<258.703 355.436> 556 65<217.539 388.043>
VStem: 43 77<286.932 458.191> 485 66<287.725 458.191> 569 62<255 330.062> 712 52<243.938 318> 924 52<255 330.062>
LayerCount: 4
Fore
SplineSet
120 374 m 0x67e0
 120 274 202 191 302 191 c 0
 334 191 364 199 390 214 c 1
 378 233 368 255 363 277 c 1
 356 273 349 270 341 267 c 0
 329 263 317 261 305 261 c 0
 298 261 292 262 285 263 c 0
 269 266 255 273 241 283 c 1
 272 314 l 1
 282 308 294 305 306 305 c 0
 320 305 332 309 344 317 c 0
 356 325 364 335 368 348 c 1
 328 348 l 1
 393 414 l 1
 459 348 l 1
 414 348 l 1
 412 338 408 328 403 319 c 1
 419 318 l 1
 419 294 425 270 436 250 c 1
 466 283 485 327 485 374 c 0
 485 474 402 556 302 556 c 0
 202 556 120 474 120 374 c 0x67e0
43 378 m 0
 43 512 162 621 301 621 c 0
 440 621 551 512 551 378 c 0
 551 312 525 248 481 199 c 1
 505 183 534 173 565 173 c 0
 645 173 712 238 712 318 c 1
 764 322 l 1
 764 214 678 114 566 114 c 0xa7e0
 518 114 474 132 438 161 c 1
 400 134 354 118 304 118 c 0
 165 118 43 244 43 378 c 0
631 255 m 1
 569 252 l 1
 569 360 666 460 778 460 c 0
 890 460 976 360 976 252 c 1
 924 255 l 1
 924 335 857 400 777 400 c 0x37e0
 697 400 631 335 631 255 c 1
154 392 m 1
 199 392 l 1
 203 411 211 428 224 443 c 0
 237 458 253 468 271 474 c 0
 282 478 293 479 305 479 c 0
 313 479 320 479 328 477 c 0
 343 474 358 468 372 458 c 1
 340 426 l 1
 330 433 318 436 306 436 c 0x2fe0
 292 436 280 432 269 424 c 0
 258 416 250 405 245 392 c 1
 285 392 l 1
 219 327 l 1
 154 392 l 1
EndSplineSet
Validated: 1
EndChar

StartChar: LightningMood
Encoding: 38 128498 46
Width: 1024
Flags: W
HStem: 114 59<487.752 640.196> 118 73<215.899 388.248> 400 60<702.176 852.196> 556 65<217.539 388.043>
VStem: 43 77<286.932 458.191> 357 62<251.184 318> 485 66<287.605 458.191> 569 62<255 330.062> 712 52<243.938 318> 924 52<255 330.062>
LayerCount: 4
Fore
SplineSet
120 374 m 0x7fc0
 120 274 202 191 302 191 c 0
 333.777773434 191 363.838841164 199.381563141 390.065259895 214.026746126 c 1
 369.248182456 246.255683994 357 283.622762308 357 322 c 1
 419 318 l 1
 419 293.531160566 425.174342315 270.46558075 436.035127793 250.233932811 c 1
 466.331636203 282.972168307 485 326.574263764 485 374 c 0
 485 474 402 556 302 556 c 0
 202 556 120 474 120 374 c 0x7fc0
43 378 m 0
 43 512 162 621 301 621 c 0
 440 621 551 512 551 378 c 0
 551 311.792470537 524.634930306 247.5379092 481.192283449 199.469096748 c 1
 504.988738411 182.798513715 533.939144652 173 565 173 c 0
 645 173 712 238 712 318 c 1
 764 322 l 1
 764 214 678 114 566 114 c 0xbfc0
 518.470566312 114 473.642480361 132.008984906 437.782569111 160.995880562 c 1
 399.510084959 134.134267349 353.739813463 118 304 118 c 0
 165 118 43 244 43 378 c 0
631 255 m 1
 569 252 l 1
 569 360 666 460 778 460 c 0
 890 460 976 360 976 252 c 1
 924 255 l 1
 924 335 857 400 777 400 c 0
 697 400 631 335 631 255 c 1
186 395 m 1
 274 395 l 1
 274 439 l 1
 406 374 l 1
 317 374 l 1
 317 330 l 1
 186 395 l 1
EndSplineSet
Validated: 1
EndChar

StartChar: NameMe.51
Encoding: 51 -1 47
Width: 1024
Flags: W
HStem: 114 59<487.124 640.196> 118 73<215.899 388.387> 400 60<702.176 852.196> 556 65<217.539 388.043>
VStem: 43 77<286.932 458.191> 357 62<250.94 318> 485 66<287.725 458.191> 569 62<255 330.062> 712 52<243.938 318> 924 52<255 330.062>
LayerCount: 4
Fore
SplineSet
120 374 m 0x7fc0
 120 274 202 191 302 191 c 0
 334 191 364 199 390 214 c 1
 369 246 357 284 357 322 c 1
 419 318 l 1
 419 294 425 270 436 250 c 1
 466 283 485 327 485 374 c 0
 485 474 402 556 302 556 c 0
 202 556 120 474 120 374 c 0x7fc0
43 378 m 0
 43 512 162 621 301 621 c 0
 440 621 551 512 551 378 c 0
 551 312 525 248 481 199 c 1
 505 183 534 173 565 173 c 0
 645 173 712 238 712 318 c 1
 764 322 l 1
 764 214 678 114 566 114 c 0xbfc0
 518 114 474 132 438 161 c 1
 400 134 354 118 304 118 c 0
 165 118 43 244 43 378 c 0
631 255 m 1
 569 252 l 1
 569 360 666 460 778 460 c 0
 890 460 976 360 976 252 c 1
 924 255 l 1
 924 335 857 400 777 400 c 0
 697 400 631 335 631 255 c 1
EndSplineSet
Validated: 1
EndChar

StartChar: NameMe.50
Encoding: 50 -1 48
Width: 1024
Flags: W
HStem: 114 59<487.752 640.196> 118 73<215.899 388.248> 400 60<702.176 852.196> 556 65<217.539 388.043>
VStem: 43 77<286.932 458.191> 357 62<251.184 318> 485 66<287.605 458.191> 569 62<255 330.062> 712 52<243.938 318> 924 52<255 330.062>
LayerCount: 4
Fore
SplineSet
120 374 m 0x7fc0
 120 274 202 191 302 191 c 0
 333.777773434 191 363.838841164 199.381563141 390.065259895 214.026746126 c 1
 369.248182456 246.255683994 357 283.622762308 357 322 c 1
 419 318 l 1
 419 293.531160566 425.174342315 270.46558075 436.035127793 250.233932811 c 1
 466.331636203 282.972168307 485 326.574263764 485 374 c 0
 485 474 402 556 302 556 c 0
 202 556 120 474 120 374 c 0x7fc0
43 378 m 0
 43 512 162 621 301 621 c 0
 440 621 551 512 551 378 c 0
 551 311.792470537 524.634930306 247.5379092 481.192283449 199.469096748 c 1
 504.988738411 182.798513715 533.939144652 173 565 173 c 0
 645 173 712 238 712 318 c 1
 764 322 l 1
 764 214 678 114 566 114 c 0xbfc0
 518.470566312 114 473.642480361 132.008984906 437.782569111 160.995880562 c 1
 399.510084959 134.134267349 353.739813463 118 304 118 c 0
 165 118 43 244 43 378 c 0
631 255 m 1
 569 252 l 1
 569 360 666 460 778 460 c 0
 890 460 976 360 976 252 c 1
 924 255 l 1
 924 335 857 400 777 400 c 0
 697 400 631 335 631 255 c 1
EndSplineSet
Validated: 1
EndChar

StartChar: NameMe.49
Encoding: 49 -1 49
Width: 1024
Flags: W
HStem: 114 59<487.124 640.196> 118 73<215.899 388.387> 400 60<702.176 852.196> 556 65<217.539 388.043>
VStem: 43 77<286.932 458.191> 357 62<250.94 318> 485 66<287.725 458.191> 569 62<255 330.062> 712 52<243.938 318> 924 52<255 330.062>
LayerCount: 4
Fore
SplineSet
120 374 m 0x7fc0
 120 274 202 191 302 191 c 0
 334 191 364 199 390 214 c 1
 369 246 357 284 357 322 c 1
 419 318 l 1
 419 294 425 270 436 250 c 1
 466 283 485 327 485 374 c 0
 485 474 402 556 302 556 c 0
 202 556 120 474 120 374 c 0x7fc0
43 378 m 0
 43 512 162 621 301 621 c 0
 440 621 551 512 551 378 c 0
 551 312 525 248 481 199 c 1
 505 183 534 173 565 173 c 0
 645 173 712 238 712 318 c 1
 764 322 l 1
 764 214 678 114 566 114 c 0xbfc0
 518 114 474 132 438 161 c 1
 400 134 354 118 304 118 c 0
 165 118 43 244 43 378 c 0
631 255 m 1
 569 252 l 1
 569 360 666 460 778 460 c 0
 890 460 976 360 976 252 c 1
 924 255 l 1
 924 335 857 400 777 400 c 0
 697 400 631 335 631 255 c 1
EndSplineSet
Validated: 1
EndChar

StartChar: NameMe.48
Encoding: 48 -1 50
Width: 1024
Flags: W
HStem: 114 59<487.124 640.196> 118 73<215.899 388.387> 400 60<702.176 852.196> 556 65<217.539 388.043>
VStem: 43 77<286.932 458.191> 357 62<250.94 318> 485 66<287.725 458.191> 569 62<255 330.062> 712 52<243.938 318> 924 52<255 330.062>
LayerCount: 4
Fore
SplineSet
120 374 m 0x7fc0
 120 274 202 191 302 191 c 0
 334 191 364 199 390 214 c 1
 369 246 357 284 357 322 c 1
 419 318 l 1
 419 294 425 270 436 250 c 1
 466 283 485 327 485 374 c 0
 485 474 402 556 302 556 c 0
 202 556 120 474 120 374 c 0x7fc0
43 378 m 0
 43 512 162 621 301 621 c 0
 440 621 551 512 551 378 c 0
 551 312 525 248 481 199 c 1
 505 183 534 173 565 173 c 0
 645 173 712 238 712 318 c 1
 764 322 l 1
 764 214 678 114 566 114 c 0xbfc0
 518 114 474 132 438 161 c 1
 400 134 354 118 304 118 c 0
 165 118 43 244 43 378 c 0
631 255 m 1
 569 252 l 1
 569 360 666 460 778 460 c 0
 890 460 976 360 976 252 c 1
 924 255 l 1
 924 335 857 400 777 400 c 0
 697 400 631 335 631 255 c 1
EndSplineSet
Validated: 1
EndChar

StartChar: NameMe.47
Encoding: 47 -1 51
Width: 1024
Flags: W
HStem: 114 59<487.124 640.196> 118 73<215.899 388.387> 400 60<702.176 852.196> 556 65<217.539 388.043>
VStem: 43 77<286.932 458.191> 357 62<250.94 318> 485 66<287.725 458.191> 569 62<255 330.062> 712 52<243.938 318> 924 52<255 330.062>
LayerCount: 4
Fore
SplineSet
120 374 m 0x7fc0
 120 274 202 191 302 191 c 0
 334 191 364 199 390 214 c 1
 369 246 357 284 357 322 c 1
 419 318 l 1
 419 294 425 270 436 250 c 1
 466 283 485 327 485 374 c 4
 485 474 402 556 302 556 c 4
 202 556 120 474 120 374 c 0x7fc0
43 378 m 0
 43 512 162 621 301 621 c 0
 440 621 551 512 551 378 c 0
 551 312 525 248 481 199 c 1
 505 183 534 173 565 173 c 0
 645 173 712 238 712 318 c 1
 764 322 l 1
 764 214 678 114 566 114 c 0xbfc0
 518 114 474 132 438 161 c 1
 400 134 354 118 304 118 c 0
 165 118 43 244 43 378 c 0
631 255 m 1
 569 252 l 1
 569 360 666 460 778 460 c 0
 890 460 976 360 976 252 c 1
 924 255 l 1
 924 335 857 400 777 400 c 0
 697 400 631 335 631 255 c 1
EndSplineSet
Validated: 1
EndChar

StartChar: NameMe.46
Encoding: 46 -1 52
Width: 1024
Flags: W
HStem: 114 59<487.124 640.196> 118 73<215.899 388.387> 400 60<702.176 852.196> 556 65<217.539 388.043>
VStem: 43 77<286.932 458.191> 357 62<250.94 318> 485 66<287.725 458.191> 569 62<255 330.062> 712 52<243.938 318> 924 52<255 330.062>
LayerCount: 4
Fore
SplineSet
120 374 m 0x7fc0
 120 274 202 191 302 191 c 0
 334 191 364 199 390 214 c 1
 369 246 357 284 357 322 c 1
 419 318 l 1
 419 294 425 270 436 250 c 1
 466 283 485 327 485 374 c 0
 485 474 402 556 302 556 c 0
 202 556 120 474 120 374 c 0x7fc0
43 378 m 0
 43 512 162 621 301 621 c 0
 440 621 551 512 551 378 c 0
 551 312 525 248 481 199 c 1
 505 183 534 173 565 173 c 0
 645 173 712 238 712 318 c 1
 764 322 l 1
 764 214 678 114 566 114 c 0xbfc0
 518 114 474 132 438 161 c 1
 400 134 354 118 304 118 c 0
 165 118 43 244 43 378 c 0
631 255 m 1
 569 252 l 1
 569 360 666 460 778 460 c 0
 890 460 976 360 976 252 c 1
 924 255 l 1
 924 335 857 400 777 400 c 0
 697 400 631 335 631 255 c 1
EndSplineSet
Validated: 1
EndChar

StartChar: NameMe.45
Encoding: 45 -1 53
Width: 1024
Flags: W
HStem: 114 59<487.124 640.196> 118 73<215.899 388.387> 400 60<702.176 852.196> 556 65<217.539 388.043>
VStem: 43 77<286.932 458.191> 357 62<250.94 318> 485 66<287.725 458.191> 569 62<255 330.062> 712 52<243.938 318> 924 52<255 330.062>
LayerCount: 4
Fore
SplineSet
120 374 m 0x7fc0
 120 274 202 191 302 191 c 0
 334 191 364 199 390 214 c 1
 369 246 357 284 357 322 c 1
 419 318 l 1
 419 294 425 270 436 250 c 1
 466 283 485 327 485 374 c 0
 485 474 402 556 302 556 c 0
 202 556 120 474 120 374 c 0x7fc0
43 378 m 0
 43 512 162 621 301 621 c 0
 440 621 551 512 551 378 c 0
 551 312 525 248 481 199 c 1
 505 183 534 173 565 173 c 0
 645 173 712 238 712 318 c 1
 764 322 l 1
 764 214 678 114 566 114 c 0xbfc0
 518 114 474 132 438 161 c 1
 400 134 354 118 304 118 c 0
 165 118 43 244 43 378 c 0
631 255 m 1
 569 252 l 1
 569 360 666 460 778 460 c 0
 890 460 976 360 976 252 c 1
 924 255 l 1
 924 335 857 400 777 400 c 0
 697 400 631 335 631 255 c 1
EndSplineSet
Validated: 1
EndChar

StartChar: LinkSymbolEmoji
Encoding: 44 128279 54
Width: 1024
Flags: W
HStem: 114 59<487.124 640.196> 118 73<215.899 388.387> 260 35<211.543 267.185> 400 60<702.176 852.196> 461 34<310.375 365.377> 556 65<217.539 388.043>
VStem: 43 77<286.932 458.191> 171 34<301.497 362.416> 231 35<347.619 416.961> 312 34<340.368 407.945> 357 62<250.94 318> 372 34<392.266 454.102> 485 66<287.725 458.191> 569 62<255 330.062> 712 52<243.938 318> 924 52<255 330.062>
LayerCount: 4
Fore
SplineSet
327 415 m 0x3fcf
 339.666992188 402.333007812 346 387 346 369 c 0
 346 351 339.666992188 335.666992188 327 323 c 2
 284 280 l 2
 270.666992188 266.666992188 255 260 237 260 c 0
 219 260 203.5 266.5 190.5 279.5 c 0
 177.5 292.5 171 308 171 326 c 0
 171 344 177.666992188 359.666992188 191 373 c 2
 217 399 l 1
 217 387 l 2
 217 377 218.666992188 367.666992188 222 359 c 2
 223 356 l 1
 215 348 l 2
 208.333007812 342 205 334.666992188 205 326 c 0
 205 317.333007812 208.166992188 310 214.5 304 c 0
 220.833007812 298 228.333007812 295 237 295 c 0
 245.666992188 295 253 298 259 304 c 2
 302 347 l 2
 308.666992188 353 312 360.333007812 312 369 c 0
 312 377.666992188 308.666992188 385 302 391 c 0
 298.666992188 395 297 399.166992188 297 403.5 c 0
 297 407.833007812 298.666992188 411.666992188 302 415 c 0
 305.333007812 418.333007812 309.5 420 314.5 420 c 0
 319.5 420 323.666992188 418.333007812 327 415 c 0x3fcf
406 429 m 256x3fdf
 406 411 399.666992188 395.666992188 387 383 c 2
 360 356 l 1
 360 368 l 2
 360 378 358.666992188 387.333007812 356 396 c 2
 355 399 l 1
 362 407 l 2
 368.666992188 413 372 420.333007812 372 429 c 0
 372 437.666992188 369 445.166992188 363 451.5 c 0
 357 457.833007812 349.5 461 340.5 461 c 0
 331.5 461 324 458 318 452 c 2
 275 409 l 2
 269 403 266 395.5 266 386.5 c 0
 266 377.5 269 370 275 364 c 0
 278.333007812 360.666992188 280 356.666992188 280 352 c 0
 280 347.333007812 278.333007812 343.333007812 275 340 c 0
 271.666992188 336.666992188 267.666992188 335 263 335 c 0
 258.333007812 335 254.333007812 336.666992188 251 340 c 0
 237.666992188 352.666992188 231 368.166992188 231 386.5 c 0
 231 404.833007812 237.666992188 420.333007812 251 433 c 2
 294 476 l 2
 306.666992188 488.666992188 322.166992188 495 340.5 495 c 0
 358.833007812 495 374.333007812 488.5 387 475.5 c 0
 399.666992188 462.5 406 447 406 429 c 256x3fdf
120 374 m 0
 120 274 202 191 302 191 c 0
 334 191 364 199 390 214 c 1
 369 246 357 284 357 322 c 1
 419 318 l 1x7fef
 419 294 425 270 436 250 c 1
 466 283 485 327 485 374 c 0
 485 474 402 556 302 556 c 0
 202 556 120 474 120 374 c 0
43 378 m 0
 43 512 162 621 301 621 c 0
 440 621 551 512 551 378 c 0
 551 312 525 248 481 199 c 1
 505 183 534 173 565 173 c 0
 645 173 712 238 712 318 c 1
 764 322 l 1
 764 214 678 114 566 114 c 0xbfcf
 518 114 474 132 438 161 c 1
 400 134 354 118 304 118 c 0
 165 118 43 244 43 378 c 0
631 255 m 1
 569 252 l 1
 569 360 666 460 778 460 c 0
 890 460 976 360 976 252 c 1
 924 255 l 1
 924 335 857 400 777 400 c 0
 697 400 631 335 631 255 c 1
EndSplineSet
Validated: 1
EndChar
